<?xml version="1.0" encoding="UTF-8"?><svg id="Layer_2" xmlns="http://www.w3.org/2000/svg" width="780.04" height="498" viewBox="0 0 780.04 498"><g id="Layer_1-2"><path d="M30.35,440.5c-3.4-138.04,35.12-197.55,73-226,138.4-103.95,397.56,109.7,556-3,55.16-39.24,77.64-103.47,88-152" fill="none" stroke="#000" stroke-miterlimit="10" stroke-width="4"/><path d="M719.85,22c-2.35,19.86,12.07,36.08,27,37,15.98,.98,33.22-15.52,31-37h-58Z" fill="none" stroke="#000" stroke-miterlimit="10" stroke-width="4"/><path d="M2.25,475.53c-2.35-19.86,12.07-36.08,27-37,15.98-.98,33.22,15.52,31,37H2.25Z" fill="none" stroke="#000" stroke-miterlimit="10" stroke-width="4"/><rect x="14.85" y="477" width="7" height="19" fill="none" stroke="#000" stroke-miterlimit="10" stroke-width="4"/><rect x="39.85" y="477" width="7" height="19" fill="none" stroke="#000" stroke-miterlimit="10" stroke-width="4"/><rect x="733.85" y="2" width="7" height="19" fill="none" stroke="#000" stroke-miterlimit="10" stroke-width="4"/><rect x="758.85" y="2" width="7" height="19" fill="none" stroke="#000" stroke-miterlimit="10" stroke-width="4"/></g></svg>