<?xml version="1.0" encoding="UTF-8"?><svg id="Layer_2" xmlns="http://www.w3.org/2000/svg" width="128.56" height="413.28" viewBox="0 0 128.56 413.28"><g id="Layer_1-2"><path d="M8.04,22c-2.35,19.86,12.07,36.08,27,37,15.98,.98,33.22-15.52,31-37H8.04Z" fill="none" stroke="#000" stroke-miterlimit="10" stroke-width="4"/><rect x="22.04" y="2" width="7" height="19" fill="none" stroke="#000" stroke-miterlimit="10" stroke-width="4"/><rect x="47.04" y="2" width="7" height="19" fill="none" stroke="#000" stroke-miterlimit="10" stroke-width="4"/><path d="M7.04,390.8c-2.35-19.86,12.07-36.08,27-37,15.98-.98,33.22,15.52,31,37H7.04Z" fill="none" stroke="#000" stroke-miterlimit="10" stroke-width="4"/><rect x="19.63" y="392.28" width="7" height="19" fill="none" stroke="#000" stroke-miterlimit="10" stroke-width="4"/><rect x="44.63" y="392.28" width="7" height="19" fill="none" stroke="#000" stroke-miterlimit="10" stroke-width="4"/><path d="M33.55,353.75c87.72-82.08,98.65-113.17,91-126-13.16-22.07-80.89,10.57-110-19-27.44-27.87-4.89-95.1,20-150" fill="none" stroke="#000" stroke-miterlimit="10" stroke-width="4"/></g></svg>