<svg width="745" height="270" viewBox="0 0 745 270" fill="none" xmlns="http://www.w3.org/2000/svg">
<g clip-path="url(#clip0_160_66)">
<rect width="745" height="270" fill="white"/>
<path d="M0 270C0 272.761 2.23858 275 5 275C7.76142 275 10 272.761 10 270H0ZM5 49.7512V44.7512C2.23858 44.7512 0 46.9898 0 49.7512H5ZM740 49.7512V54.7512C742.761 54.7512 745 52.5127 745 49.7512H740ZM745 0C745 -2.76142 742.761 -5 740 -5C737.239 -5 735 -2.76142 735 0H745ZM10 270V49.7512H0V270H10ZM745 49.7512V0H735V49.7512H745ZM5 54.7512H372.5V44.7512H5V54.7512ZM372.5 54.7512H740V44.7512H372.5V54.7512Z" fill="#C6C6C6"/>
</g>
<defs>
<clipPath id="clip0_160_66">
<rect width="745" height="270" fill="white"/>
</clipPath>
</defs>
</svg>
