<?xml version="1.0" encoding="UTF-8"?><svg id="Layer_2" xmlns="http://www.w3.org/2000/svg" width="97.38" height="177.84" viewBox="0 0 97.38 177.84"><g id="Layer_2-2"><path d="M44.97,177.34v-9h-6v-3h6v-7h-3v-2h3v-10l-9,10-2-10-10,10-1-9-12,8,2-7-11,7,19-26-6,3,3-10-10,10,17-25-5,3v-7l-8,8,16-25-4,2,1-6-7,7,11-18-2,1,3-7-8,8,11-17-2-5-4,4,10-15-5-1c3.23-4.27,6.75-9.59,10-16,3.96-7.81,6.43-15.05,8-21,.87,4.99,2.56,11.67,6,19,3.51,7.47,7.66,13.12,11,17-1.67,.33-3.33,.67-5,1,3.67,5,7.33,10,11,15l-5-3v4l10,17-5-5-1,4,9,17-6-5,1,5-5-4,15,24-9-8,4,9-4-3,15,26-8-8,3,8-10-6,20,29-11-11,3,13-12-12-1,11-9-11-4,11-8-11v14h4v3h-4v6h4v2h-4v7h-10Z" fill="none" stroke="#000" stroke-miterlimit="10"/></g></svg>