<?xml version="1.0" encoding="UTF-8"?><svg id="Layer_2" xmlns="http://www.w3.org/2000/svg" width="777.04" height="495" viewBox="0 0 777.04 495"><g id="Layer_1-2"><path d="M28.85,439c-3.4-138.04,35.12-197.55,73-226,138.4-103.95,397.56,109.7,556-3,55.16-39.24,77.64-103.47,88-152" fill="none" stroke="#000" stroke-miterlimit="10"/><path d="M718.35,20.5c-2.35,19.86,12.07,36.08,27,37,15.98,.98,33.22-15.52,31-37h-58Z" fill="none" stroke="#000" stroke-miterlimit="10"/><path d="M.75,474.03c-2.35-19.86,12.07-36.08,27-37,15.98-.98,33.22,15.52,31,37H.75Z" fill="none" stroke="#000" stroke-miterlimit="10"/><rect x="13.35" y="475.5" width="7" height="19" fill="none" stroke="#000" stroke-miterlimit="10"/><rect x="38.35" y="475.5" width="7" height="19" fill="none" stroke="#000" stroke-miterlimit="10"/><rect x="732.35" y=".5" width="7" height="19" fill="none" stroke="#000" stroke-miterlimit="10"/><rect x="757.35" y=".5" width="7" height="19" fill="none" stroke="#000" stroke-miterlimit="10"/></g></svg>