<?xml version="1.0" encoding="UTF-8"?><svg id="Layer_2" xmlns="http://www.w3.org/2000/svg" width="80.05" height="158" viewBox="0 0 80.05 158"><g id="Layer_2-2"><g><path d="M45.31,156.5c-1.33-27.67-2.67-55.33-4-83,.23-.71,.58-1.75,1-3,2.17-6.43,3.26-9.64,4-11,2.04-3.73,6.71-8.19,11-8,5.53,.24,11.47,8.24,12,20,.33-.33,.67-.67,1-1,.03-1.91-.12-4.73-1-8-.6-2.21-1.23-4.56-3-7-1.13-1.55-4.26-5.87-9-6-3.85-.11-7.44,2.57-8,3-.03,.02-.13,.1-.27,.21-3.32,2.67-4.72,6.17-5.73,8.79-.73,1.89-1.58,4.6-2,8v-26c.33-1.61,1.54-6.46,6-10,2.23-1.77,4.48-2.6,6-3-.33-.33-.67-.67-1-1-1.74,.12-3.97,.57-6,2-4.5,3.17-5.22,9.18-6,9-.7-.16,1.09-4.85-1-10-1.2-2.97-2.97-4.97-4-6-1.46-1.46-2.92-2.4-4-3-.33,.67-.67,1.33-1,2,1.39,1.16,3.39,3.11,5,6,2.28,4.08,2.58,7.88,3,14,.19,2.71,.31,6.47,0,11,.79-12.05-8.56-20.53-16-20-7.42,.53-15.44,10.21-13,22h1c-.68-10.3,4.88-18.11,11-19,5.8-.84,10.76,4.73,11,5,2.14,2.46,3.01,5.17,4,14,1.29,11.47,.1,23.38,0,21-.25-6.24-5.76-10.67-11-10-5.44,.69-9.73,6.74-8,13h1c-.1-5.91,3.44-10.48,7-11,4.24-.61,10.15,4.29,10,12l-3,76h13v-1Z" fill="none" stroke="#000" stroke-miterlimit="10"/><path d="M33.31,108.5c-2.15,.39-7.97,1.13-14-2-1.44-.75-4.62-2.45-7-6-4.54-6.77-2.4-14.61-2-16-2.01-1.08-4.78-2.92-7-6-1.18-1.64-4.26-6.48-2-26,2.31-19.93,6.55-23.81,8-25,3.17-2.6,6.67-3.58,9-4C19.92,10,29.76,.57,39.31,.5c13.39-.09,20.38,18.3,21,20,1.89,5.18,2.12,9.86,2,13,1.83,.1,4.43,.51,7,2,8.11,4.69,8.95,16,10,30,.94,12.57-1.01,16.55-3,19-2.24,2.77-5.05,4.22-7,5,.44,1.39,1.08,4.13,0,7-.97,2.58-2.95,4.26-6,6-6.98,3.99-14.73,5.52-20.11,6.15" fill="none" stroke="#000" stroke-miterlimit="10"/></g></g></svg>