<?xml version="1.0" encoding="UTF-8"?><svg id="Layer_2" xmlns="http://www.w3.org/2000/svg" width="59.07" height="144" viewBox="0 0 59.07 144"><g id="Layer_2-2"><g><path d="M34.5,143.5h-10l2-61c-.34-2.61-1.67-10.11-8-16-2.86-2.66-5.83-4.15-8-5,2.04,.08,3.7,.51,5,1,9.05,3.44,11.64,14.38,12,16v-31c-1.29-2.14-2.93-4.53-5-7-2.42-2.89-4.85-5.2-7-7,1.54,.76,3.24,1.74,5,3,3.72,2.68,6.29,5.64,8,8,.27-3.63,.22-9.42-2-16-1.43-4.26-3.35-7.6-5-10,1.57,1.49,3.35,3.46,5,6,3.25,5,4.48,9.85,5,13,.35-1.6,1.29-4.86,4-8,2.58-2.99,5.49-4.39,7-5-1.68,1.05-4.64,3.21-7,7-1.97,3.16-2.7,6.15-3,8-.33,9.33-.67,18.67-1,28,.26-1.7,2.22-13.35,11-17,1.09-.46,2.42-.84,4-1-1.99,.95-4.56,2.49-7,5-5.85,6.02-6.79,13.37-7,16,.67,24.33,1.33,48.67,2,73Z" fill="none" stroke="#000" stroke-miterlimit="10"/><path d="M25.5,97.5c-3.19,.41-7.41,.43-12-1-3.25-1.01-7.15-2.23-10-6-2.61-3.46-2.96-7.26-3-9,1.61-17.38,3.92-31.94,6-43C10.63,16.52,14.14,6.67,22.5,2.5c3.07-1.53,6.02-1.91,8-2,.99,.12,2.41,.38,4,1,7.3,2.83,12.55,10.96,18,36,2.33,10.7,4.79,24.92,6,42,.15,1.66,.4,6.78-3,11-2.27,2.82-5.1,3.9-8,5-2.65,1.01-7.47,2.41-13.93,1.91" fill="none" stroke="#000" stroke-miterlimit="10"/></g></g></svg>