<?xml version="1.0" encoding="UTF-8"?><svg id="Layer_2" xmlns="http://www.w3.org/2000/svg" width="622.46" height="658.08" viewBox="0 0 622.46 658.08"><g id="Layer_2-2"><path d="M44.71,206.9c-.16-.61-.9-3.81,1-7,1.67-2.8,4.3-3.77,5-4l547.5-1.5c.59,.2,6.28,2.26,7.5,7.5,.36,1.55,.23,2.94,0,4-187,.33-374,.67-561,1Z" fill="none" stroke="#000" stroke-miterlimit="10"/><path d="M44.31,426.77c-.16-.61-.9-3.81,1-7,1.67-2.8,4.3-3.77,5-4l547.5-1.5c.59,.2,6.28,2.26,7.5,7.5,.36,1.55,.23,2.94,0,4-187,.33-374,.67-561,1Z" fill="none" stroke="#000" stroke-miterlimit="10"/><path d="M46.31,657.58c-.16-.61-.9-3.81,1-7,1.67-2.8,4.3-3.77,5-4l547.5-1.5c.59,.2,6.28,2.26,7.5,7.5,.36,1.55,.23,2.94,0,4-187,.33-374,.67-561,1Z" fill="none" stroke="#000" stroke-miterlimit="10"/><g><path d="M215.71,414.9c1-23.33,2-46.67,3-70l-16-25,16,20,2-54,3,27,13-13-13,18,1,34,21-26-21,30c.67,19.67,1.33,39.33,2,59h-11Z" fill="none" stroke="#000" stroke-miterlimit="10"/><path d="M217.71,359.9c-25.19-2.35-42.46-18.21-43-34-.32-9.39,5.33-17,9-21-.87-2.19-3.03-8.46-1-16,2.81-10.46,11.49-15.21,13-16-.82-2.74-1.68-7.27,0-12,3.75-10.54,17.21-13.82,25-14,1.26-.03,19.41-.18,26,13,2.55,5.09,2.36,10.15,2,13,1.54,1.02,12.29,8.37,13,21,.26,4.65-.93,8.49-2,11,3.01,3.39,9.88,12.15,9,23-1.29,15.96-18.93,31.08-43.38,32.03" fill="none" stroke="#000" stroke-miterlimit="10"/></g><g><path d="M182.71,193.9l1-75c-1.21-2.57-4.88-9.44-13-14-6.73-3.78-13.09-4.06-16-4,2.37-.55,8.3-1.57,15,1,9.14,3.51,13.11,11.16,14,13v-17c-2.31-3.39-5.84-7.8-11-12-3.98-3.24-7.84-5.47-11-7,3.18,.61,8.55,2.08,14,6,3.81,2.74,6.38,5.75,8,8,.67-8.33,1.33-16.67,2-25,.67,8.33,1.33,16.67,2,25,.84-1.83,3.35-6.7,9-10,4.58-2.67,8.94-2.99,11-3-2.81,1.23-6.34,3.11-10,6-4.86,3.85-8.04,7.98-10,11v17c1.21-1.78,9.1-13.07,21-13,1.68,0,3.72,.25,6,1-2.89,.06-7.71,.54-13,3-7.17,3.34-11.25,8.47-13,11v78h-6Z" fill="none" stroke="#000" stroke-miterlimit="10"/><path d="M183.71,135.9c-21.92-2.01-39.38-17.21-43-36-4.9-25.48,16.69-52.23,44-53,25.41-.71,48.54,21.26,47,47-1.28,21.49-19.43,40.03-43,42" fill="none" stroke="#000" stroke-miterlimit="10"/></g><polygon points="122.71 193.9 176.71 193.9 164.71 177.9 172.71 177.9 159.71 159.9 166.71 159.9 150.71 138.9 133.71 160.9 140.71 160.9 127.71 177.9 136.71 177.9 122.71 193.9" fill="none" stroke="#000" stroke-miterlimit="10"/><g><path d="M215.48,175.9c24.74-.33,49.49-.67,74.23-1-6-6.67-12-13.33-18-20h12c-5.67-7-11.33-14-17-21h11c-8.67-9.67-17.33-19.33-26-29-8.33,9.67-16.67,19.33-25,29h11l-18,21h12l-16.23,21Z" fill="none" stroke="#000" stroke-miterlimit="10"/><polygon points="249.4 175.74 248.71 195.9 255.71 195.9 255.14 175.38 249.4 175.74" fill="none" stroke="#000" stroke-miterlimit="10"/></g><path d="M393.71,195.9v-9h-6v-3h6v-7h-3v-2h3v-10l-9,10-2-10-10,10-1-9-12,8,2-7-11,7,19-26-6,3,3-10-10,10,17-25-5,3v-7l-8,8,16-25-4,2,1-6-7,7,11-18-2,1,3-7-8,8,11-17-2-5-4,4,10-15-5-1c3.23-4.27,6.75-9.59,10-16,3.96-7.81,6.43-15.05,8-21,.87,4.99,2.56,11.67,6,19,3.51,7.47,7.66,13.12,11,17-1.67,.33-3.33,.67-5,1,3.67,5,7.33,10,11,15l-5-3v4l10,17-5-5-1,4,9,17-6-5,1,5-5-4,15,24-9-8,4,9-4-3,15,26-8-8,3,8-10-6,20,29-11-11,3,13-12-12-1,11-9-11-4,11-8-11v14h4v3h-4v6h4v2h-4v7h-10Z" fill="none" stroke="#000" stroke-miterlimit="10"/><g><polygon points="549.71 192.9 552.71 120.9 542.71 115.9 528.71 112.9 540.71 112.9 519.71 93.9 537.71 104.9 535.71 93.9 541.71 107.9 551.71 114.9 552.71 86.9 538.71 77.9 524.71 74.9 533.71 73.9 524.71 60.9 541.71 76.9 543.71 63.9 545.71 77.9 552.71 80.9 552.71 54.9 542.71 44.9 552.71 51.9 554.71 37.9 556.71 52.9 569.71 44.9 556.71 55.9 556.71 75.9 576.71 56.9 571.71 64.9 582.71 65.9 569.71 67.9 556.71 79.9 556.71 110.9 569.71 101.9 572.71 85.9 572.71 100.9 592.71 83.9 582.71 95.9 593.71 95.9 580.71 97.9 567.71 107.9 584.71 109.9 564.71 110.9 557.71 115.9 560.71 192.9 549.71 192.9" fill="none" stroke="#000" stroke-miterlimit="10"/><path d="M552.71,120.9c-14.67,5.8-27.88,3.19-32-4-.79-1.37-2.18-4.53-1-10-7.13-2.3-12.25-8.6-13-16-.73-7.2,2.78-14.22,9-18-4.57-5.66-5.72-13.34-3-20,4.05-9.9,14.35-11.89,15-12,1.72-1.79,11.82-12,28-12,15.28,0,25.05,9.1,27,11,.51,.07,12.41,1.89,17,13,4.23,10.24-1.51,19.26-2,20,6.35,3.95,9.89,11.03,9,18-1.09,8.51-8.61,15.45-18,16,1.58,4.84,.61,7.72,0,9-3.18,6.67-15.44,9.65-30,5" fill="none" stroke="#000" stroke-miterlimit="10"/></g><g><path d="M492.71,413.9h-10l2-61c-.34-2.61-1.67-10.11-8-16-2.86-2.66-5.83-4.15-8-5,2.04,.08,3.7,.51,5,1,9.05,3.44,11.64,14.38,12,16v-31c-1.29-2.14-2.93-4.53-5-7-2.42-2.89-4.85-5.2-7-7,1.54,.76,3.24,1.74,5,3,3.72,2.68,6.29,5.64,8,8,.27-3.63,.22-9.42-2-16-1.43-4.26-3.35-7.6-5-10,1.57,1.49,3.35,3.46,5,6,3.25,5,4.48,9.85,5,13,.35-1.6,1.29-4.86,4-8,2.58-2.99,5.49-4.39,7-5-1.68,1.05-4.64,3.21-7,7-1.97,3.16-2.7,6.15-3,8-.33,9.33-.67,18.67-1,28,.26-1.7,2.22-13.35,11-17,1.09-.46,2.42-.84,4-1-1.99,.95-4.56,2.49-7,5-5.85,6.02-6.79,13.37-7,16,.67,24.33,1.33,48.67,2,73Z" fill="none" stroke="#000" stroke-miterlimit="10"/><path d="M483.71,367.9c-3.19,.41-7.41,.43-12-1-3.25-1.01-7.15-2.23-10-6-2.61-3.46-2.96-7.26-3-9,1.61-17.38,3.92-31.94,6-43,4.13-21.98,7.64-31.83,16-36,3.07-1.53,6.02-1.91,8-2,.99,.12,2.41,.38,4,1,7.3,2.83,12.55,10.96,18,36,2.33,10.7,4.79,24.92,6,42,.15,1.66,.4,6.78-3,11-2.27,2.82-5.1,3.9-8,5-2.65,1.01-7.47,2.41-13.93,1.91" fill="none" stroke="#000" stroke-miterlimit="10"/></g><g><path d="M390.71,414.9h-9v-42l-7-2,1-3,6,2,1-30-6-1,1-3,5,1,1-21c-1.95-.16-7.27-.85-12-5-6.92-6.07-7.01-14.65-7-16h2c-.01,1.38,.09,7.67,5,13,4.68,5.08,10.55,5.85,12,6,.33-14.67,.67-29.33,1-44-.63,.04-1.3,.04-2,0-4.49-.28-7.94-2.4-10-4-.8,.45-6.86,3.75-13,1-2.5-1.12-4.11-2.84-5-4,.48-.51,1.23-1.13,2-1,.81,.14,1.09,1.01,2,2,0,0,.94,1.02,3,2,3.41,1.62,8.43-.72,9-1-1.24-1.62-2.77-3.95-4-7-1.26-3.13-1.78-5.94-2-8l2-1c.26,1.25,.58,2.59,1,4,.32,1.06,.65,2.06,1,3,1.33-.33,3.09-.92,5-2,1.75-.99,3.07-2.1,4-3l2,1c-.99,1.37-2.9,3.58-6,5-1.08,.5-2.1,.81-3,1,.5,1.37,1.38,3.23,3,5,4.03,4.41,9.51,4.91,11,5v-29h2v9c.62,.08,1.3,.09,2,0,4.02-.52,6.39-4.04,7-5l2,1c-.81,1.2-2.69,3.6-6,5-1.52,.65-2.92,.9-4,1v20c2.09,.41,6,.84,10-1,6.42-2.94,10.39-10.47,10-19l2-1c.22,2.58,.34,8.3-3,14-1.26,2.16-2.72,3.8-4,5,1.43,.6,5.24,1.96,10,1,4.11-.83,6.82-2.95,8-4,.33,.33,.67,.67,1,1-.65,.8-1.32,1.45-2,2-6.67,5.39-16.54,2.73-19,2-1.02,.84-3.04,2.29-6,3-3.12,.75-5.7,.31-7,0v46c2.39-.47,7.42-1.8,12-6,7.07-6.48,7.87-14.98,8-17h2v6c1.02-.08,2.44-.32,4-1,2.67-1.17,4.26-3.01,5-4h1c-.57,1.18-1.76,3.22-4,5-2.79,2.22-5.66,2.81-7,3-.87,2.3-3.27,7.72-9,12-4.78,3.57-9.57,4.63-12,5,.33,10.33,.67,20.67,1,31l5-2v2l-5,2,2,60Z" fill="none" stroke="#000" stroke-miterlimit="10"/><path d="M384.71,279.9h-31c-1.35-.49-8.49-3.22-12-11-4.24-9.4,.48-18.08,1-19-1.39-5.32,1.04-10.41,5-12,3.77-1.52,7.51,.7,8,1,.27-6.98,4.11-13.22,10-16,7.63-3.6,17.55-.86,23,7,.56-.34,8.52-4.95,16-1,3.36,1.77,5.17,4.51,6,6,2.56-2.27,6.45-2.27,9,0,2.57,2.28,3.01,6.19,1,9,1.92,.53,8.76,2.68,12,9,4.12,8.02,.87,19.73-9,27h-36" fill="none" stroke="#000" stroke-miterlimit="10"/><path d="M368.71,300.9h8c2.4-1.92,3.22-5.22,2-8-1.18-2.71-4.04-4.34-7-4-1.01-2.42-3.38-4-6-4s-4.99,1.58-6,4c-2.53-.09-4.89,1.05-6,3-1.56,2.76-.47,6.91,3,9h8" fill="none" stroke="#000" stroke-miterlimit="10"/><path d="M404.71,304.9h-9c-3.95-1.84-5.99-6.15-5-10,1.15-4.43,6.09-7.36,11-6,.4-4.19,4.05-7.26,8-7,3.6,.24,6.65,3.19,7,7,4.83-.23,9,2.84,10,7,.76,3.18-.42,6.64-3,9h-15" fill="none" stroke="#000" stroke-miterlimit="10"/></g><g><path d="M587.71,411.9c-1.33-27.67-2.67-55.33-4-83,.23-.71,.58-1.75,1-3,2.17-6.43,3.26-9.64,4-11,2.04-3.73,6.71-8.19,11-8,5.53,.24,11.47,8.24,12,20,.33-.33,.67-.67,1-1,.03-1.91-.12-4.73-1-8-.6-2.21-1.23-4.56-3-7-1.13-1.55-4.26-5.87-9-6-3.85-.11-7.44,2.57-8,3-.03,.02-.13,.1-.27,.21-3.32,2.67-4.72,6.17-5.73,8.79-.73,1.89-1.58,4.6-2,8v-26c.33-1.61,1.54-6.46,6-10,2.23-1.77,4.48-2.6,6-3-.33-.33-.67-.67-1-1-1.74,.12-3.97,.57-6,2-4.5,3.17-5.22,9.18-6,9-.7-.16,1.09-4.85-1-10-1.2-2.97-2.97-4.97-4-6-1.46-1.46-2.92-2.4-4-3-.33,.67-.67,1.33-1,2,1.39,1.16,3.39,3.11,5,6,2.28,4.08,2.58,7.88,3,14,.19,2.71,.31,6.47,0,11,.79-12.05-8.56-20.53-16-20-7.42,.53-15.44,10.21-13,22h1c-.68-10.3,4.88-18.11,11-19,5.8-.84,10.76,4.73,11,5,2.14,2.46,3.01,5.17,4,14,1.29,11.47,.1,23.38,0,21-.25-6.24-5.76-10.67-11-10-5.44,.69-9.73,6.74-8,13h1c-.1-5.91,3.44-10.48,7-11,4.24-.61,10.15,4.29,10,12l-3,76h13v-1Z" fill="none" stroke="#000" stroke-miterlimit="10"/><path d="M575.71,363.9c-2.15,.39-7.97,1.13-14-2-1.44-.75-4.62-2.45-7-6-4.54-6.77-2.4-14.61-2-16-2.01-1.08-4.78-2.92-7-6-1.18-1.64-4.26-6.48-2-26,2.31-19.93,6.55-23.81,8-25,3.17-2.6,6.67-3.58,9-4,1.61-13.5,11.46-22.93,21-23,13.39-.09,20.38,18.3,21,20,1.89,5.18,2.12,9.86,2,13,1.83,.1,4.43,.51,7,2,8.11,4.69,8.95,16,10,30,.94,12.57-1.01,16.55-3,19-2.24,2.77-5.05,4.22-7,5,.44,1.39,1.08,4.13,0,7-.97,2.58-2.95,4.26-6,6-6.98,3.99-14.73,5.52-20.11,6.15" fill="none" stroke="#000" stroke-miterlimit="10"/></g><g><path d="M287.71,644.9h-8l1-43c-1.11,.09-3.42,.13-6-1-2.75-1.21-4.33-3.1-5-4l1-1c.69,.8,1.99,2.08,4,3,2.57,1.17,4.9,1.1,6,1v-14c-5.67-1.67-11.33-3.33-17-5h-14l1-1c1.37,.13,3.07,.19,5,0,1.97-.19,3.66-.59,5-1-2.01-1.15-5.18-3.31-8-7-3.31-4.32-4.51-8.63-5-11h2c1.09,2.86,4.75,11.31,14,17,7,4.31,13.78,4.92,17,5v-4h6v11c2.62-.25,7.94-1.13,13-5,9.27-7.09,9.93-18.26,10-20,.67,.33,1.33,.67,2,1,.08,2.4,.01,9.57-5,16-2.37,3.05-5.07,4.91-7,6,2.08,.56,4.43,.95,7,1,.34,0,.67,0,1,0l1,1c-.84,.39-1.84,.76-3,1-3.98,.84-7.35-.3-9-1-3.33,1.33-6.67,2.67-10,4l1,51Z" fill="none" stroke="#000" stroke-miterlimit="10"/><path d="M323.71,589.9c-1.2,1.49-.1,3.5-1,4-1.07,.6-2.62-2.23-5-2-2.01,.19-2.75,2.37-4,2-1-.29-.63-1.7-2-3-1.62-1.53-3.4-.79-4-2-.5-1.01,.68-1.65,1-4,.37-2.71-.89-3.98,0-5,.76-.87,1.82-.09,3-1,1.56-1.21,.76-3.4,2-4,1.07-.52,1.86,1.02,4,1,2.12-.02,3.08-1.55,4-1,.85,.5,.11,1.82,1,3,1.33,1.75,4.31,.61,5,2,.51,1.02-1.02,1.8-1,4,.02,2.16,1.5,2.92,1,4-.59,1.27-2.78,.48-4,2Z" fill="none" stroke="#000" stroke-miterlimit="10"/><path d="M247.63,581.64c-1.2,1.49-.1,3.5-1,4-1.07,.6-2.62-2.23-5-2-2.01,.19-2.75,2.37-4,2-1-.29-.63-1.7-2-3-1.62-1.53-3.4-.79-4-2-.5-1.01,.68-1.65,1-4,.37-2.71-.89-3.98,0-5,.76-.87,1.82-.09,3-1,1.56-1.21,.76-3.4,2-4,1.07-.52,1.86,1.02,4,1,2.12-.02,3.08-1.55,4-1,.85,.5,.11,1.82,1,3,1.33,1.75,4.31,.61,5,2,.51,1.02-1.02,1.8-1,4,.02,2.16,1.5,2.92,1,4-.59,1.27-2.78,.48-4,2Z" fill="none" stroke="#000" stroke-miterlimit="10"/><path d="M297.79,576c-1.03,1.52-3.7,.04-5.59,1.75-1.87,1.69-.86,4.51-2.13,4.97-1.51,.55-2.93-3.42-6.06-3.63-2.63-.17-4.04,2.5-5.59,1.75-1.23-.59-.46-2.32-1.96-4.29-1.77-2.33-4.23-1.74-4.76-3.43-.04-.12-.06-.23-.06-.34-.1-1.18,1.36-1.9,2.19-4.62,1.05-3.43-.32-5.35,1.04-6.47,1-.83,2.03-.05,3.38-.4,.22-.05,.46-.14,.71-.27,.81-.44,1.26-1.11,1.58-1.8,.57-1.26,.73-2.63,1.84-2.96,1.5-.44,2.2,1.71,4.97,2.13,.75,.11,1.4,.06,1.99-.05,.36-.07,.7-.17,1.01-.27,1.03-.31,1.79-.64,2.39-.14,.99,.83-.25,2.38,.66,4.09,1.36,2.55,5.45,1.69,6.06,3.63,.38,1.25-1.2,1.94-1.89,4-.11,.29-.19,.61-.24,.97-.43,2.79,1.33,4.09,.46,5.38Z" fill="none" stroke="#000" stroke-miterlimit="10"/><path d="M302.55,551.68c-.23,.17-.45,.27-.66,.33,.24-.13,.46-.24,.66-.33Z" fill="none" stroke="#000" stroke-miterlimit="10"/><path d="M309.58,564.7c-.62,1.17-2.75,.44-3.95,1.93-1.2,1.5-.1,3.5-1,4-1.07,.6-2.62-2.22-5-2-.88,.09-1.52,.55-2.06,1.02,.69-2.06,2.27-2.75,1.89-4-.61-1.94-4.7-1.08-6.06-3.63-.91-1.71,.33-3.26-.66-4.09-.6-.5-1.36-.17-2.39,.14-.31,.1-.65,.2-1.01,.27,0-.84,.09-1.77,.74-2.58,1.35-1.68,3.67-1.04,4.61-2.07h0c.11-.11,.19-.23,.25-.36,.16-.34,.15-.64,.06-.96h0c.13-.33,.31-.59,.63-.74,.58-.27,1.07,.05,1.74,.4,.01,0,.02,.01,.03,.02,.57,.28,1.26,.59,2.23,.58-.48,.55-.34,1.17-.16,2.05,.15,.75,.33,1.7,.16,2.95-.33,2.35-1.51,3-1,4,.6,1.21,2.38,.47,4,2,1.37,1.31,1,2.71,2,3,1.25,.37,1.99-1.81,4-2,.33-.03,.65,0,.95,.07Z" fill="none" stroke="#000" stroke-miterlimit="10"/><path d="M294.94,553.33c-.06,.13-.14,.25-.25,.35,.1-.47,.17-.94,.31-1.31,.09,.32,.1,.62-.06,.96Z" fill="none" stroke="#000" stroke-miterlimit="10"/><path d="M332.63,562.63c.02,2.16,1.5,2.93,1,4-.59,1.27-2.78,.48-4,2-1.2,1.5-.1,3.5-1,4-1.07,.6-2.62-2.22-5-2-2.01,.19-2.75,2.37-4,2-1-.29-.63-1.69-2-3-1.62-1.53-3.4-.79-4-2-.17-.34-.15-.64-.04-.99,.01,0,.03,0,.04-.01,.3-.17,.38-.51,.4-.95,.23-.52,.48-1.16,.6-2.05,.05-.39,.07-.74,.07-1.07-.02-1.99-.83-3.06-.07-3.93s1.82-.09,3-1c.04-.03,.07-.06,.1-.09-.06-.27-.1-.58-.1-.91-.01-.86,.22-1.5,.47-2.02,.19-.06,.4-.1,.62-.12,.08-.01,.16-.01,.24-.01,.13-.37,.31-.68,.67-.85,1.07-.51,1.86,1.03,4,1,.7-.01,1.27-.18,1.76-.39,.98-.42,1.62-.98,2.24-.61,.84,.5,.1,1.82,1,3,1.33,1.76,4.31,.61,5,2,.51,1.02-1.02,1.8-1,4Z" fill="none" stroke="#000" stroke-miterlimit="10"/><path d="M314.03,565.68c-.02,.44-.1,.78-.4,.95-.01,.01-.03,.01-.04,.01,.1-.28,.27-.58,.44-.96Z" fill="none" stroke="#000" stroke-miterlimit="10"/><path d="M314.03,565.68c-.02,.44-.1,.78-.4,.95-.01,.01-.03,.01-.04,.01,.1-.28,.27-.58,.44-.96Z" fill="none" stroke="#000" stroke-miterlimit="10"/><path d="M278.6,560.61c-.09,.21-.21,.43-.35,.68-1.35,.35-2.38-.43-3.38,.4-1.36,1.12,.01,3.04-1.04,6.47-.83,2.72-2.29,3.44-2.19,4.62-.82-.6-1.81-1.26-3.01-1.15-2.01,.19-2.75,2.37-4,2-1-.29-.63-1.69-2-3-1.62-1.53-3.4-.79-4-2-.51-1,.67-1.65,1-4,.37-2.7-.89-3.98,0-5,.76-.87,1.82-.09,3-1,.14-.11,.26-.22,.35-.35,.01,0,.02-.02,.02-.02,1-.7,2.03-2.12,3.85-2.29,3.14-.3,5.18,3.42,6.59,2.64,.25-.14,.39-.38,.46-.68,.76,.7,1.86,.77,2.83,.88h.01c.85,.09,1.59,.22,1.89,.82,.17,.33,.12,.64-.03,.98Z" fill="none" stroke="#000" stroke-miterlimit="10"/><path d="M246.29,558.45c-.87,.19-1.94,.28-2.66,1.18-1.2,1.5-.1,3.5-1,4-1.07,.6-2.62-2.22-5-2-2.01,.19-2.75,2.37-4,2-1-.29-.63-1.69-2-3-1.62-1.53-3.4-.79-4-2-.51-1,.67-1.65,1-4,.37-2.7-.89-3.98,0-5,.76-.87,1.82-.09,3-1,1.56-1.21,.76-3.4,2-4,1.07-.51,1.86,1.03,4,1,.61-.01,1.12-.14,1.57-.31,.71,1.08,.61,2.07,1.43,2.31,.59,.18,1.07-.22,1.63-.72,.02,.08,.05,.16,.09,.24-.24,.95,.59,2.22,.28,4.48-.33,2.35-1.51,3-1,4,.6,1.21,2.38,.47,4,2,.28,.27,.49,.55,.66,.82Z" fill="none" stroke="#000" stroke-miterlimit="10"/><path d="M260.63,550.63c.02,2.16,1.5,2.93,1,4-.31,.68-1.08,.77-1.92,.94-.73,.15-1.51,.35-2.08,1.06-1.2,1.5-.1,3.5-1,4-1.07,.6-2.62-2.22-5-2-2.01,.19-2.75,2.37-4,2-.79-.23-.72-1.15-1.34-2.18-.17-.27-.38-.55-.66-.82-1.62-1.53-3.4-.79-4-2-.51-1,.67-1.65,1-4,.31-2.26-.52-3.53-.28-4.48,.05-.18,.14-.35,.28-.52,.74-.85,1.77-.13,2.91-.94,.03-.02,.06-.04,.09-.06,1.56-1.21,.76-3.4,2-4,1.07-.51,1.86,1.03,4,1,1.36-.02,2.24-.66,2.95-.96v.04s.03-.04,.04-.06c.37-.15,.69-.21,1.01-.02,.84,.5,.1,1.82,1,3,1.33,1.76,4.31,.61,5,2,.51,1.02-1.02,1.8-1,4Z" fill="none" stroke="#000" stroke-miterlimit="10"/><path d="M254.62,541.65s-.02,.04-.04,.06v-.04s.03,0,.04-.02Z" fill="none" stroke="#000" stroke-miterlimit="10"/><path d="M280.03,550.7c-.78,1.67-3.66,.62-5.27,2.63-.66,.83-.79,1.78-.8,2.65-.02,.75,.05,1.45-.06,1.95-.07,.3-.21,.54-.46,.68-1.41,.78-3.45-2.94-6.59-2.64-1.82,.17-2.85,1.59-3.85,2.29,0,0,0,.02-.02,.02-.45,.31-.89,.48-1.4,.33-1.09-.32-.95-1.63-1.87-3.04,.84-.17,1.61-.26,1.92-.94,.5-1.07-.98-1.84-1-4-.02-2.2,1.51-2.98,1-4-.69-1.39-3.67-.24-5-2-.9-1.18-.16-2.5-1-3-.32-.19-.64-.13-1.01,.02,0-.01,.01-.01,.01-.02,.14-.3,.12-.59,.02-.88h0c-.25-.75-1-1.58-1.02-3.12,0-.51,.08-.95,.19-1.33h.01c1.38,.23,2.27-2.16,4.54-2.38,.89-.08,1.67,.2,2.38,.6,1.51,.84,2.62,2.23,3.48,1.75,.05-.03,.09-.06,.13-.1,0,.37-.03,.78-.09,1.2-.51,3.69-2.36,4.7-1.57,6.27,.94,1.89,3.73,.73,6.27,3.14,1.84,1.74,1.68,3.6,2.57,4.38,.15,.15,.33,.25,.56,.32,1.97,.58,3.12-2.84,6.27-3.13,.41-.04,.8-.02,1.17,.05,.45,.89,.85,1.53,.49,2.3Z" fill="none" stroke="#000" stroke-miterlimit="10"/><path d="M254.63,541.63s-.01,.01-.01,.02c0,.02-.02,.04-.04,.06v-.04c-.04-.34-.03-.64,.07-.92,.1,.29,.12,.58-.02,.88Z" fill="none" stroke="#000" stroke-miterlimit="10"/><path d="M264.36,536.17c.04-.7-.01-1.32-.08-1.89,.13,.06,.27,.12,.41,.18,.01,.76,.04,1.4-.33,1.71Z" fill="none" stroke="#000" stroke-miterlimit="10"/><path d="M294.96,544.7c-.09-.45-.15-.81-.04-1.12,0,.01,0,.02,.02,.04,.18,.37,.15,.71,.02,1.08Z" fill="none" stroke="#000" stroke-miterlimit="10"/><path d="M294.94,553.33c-.06,.13-.14,.25-.25,.35,.1-.47,.17-.94,.31-1.31,.09,.32,.1,.62-.06,.96Z" fill="none" stroke="#000" stroke-miterlimit="10"/><path d="M253.63,537.63c.02,1.54,.77,2.37,1.02,3.11h0c-.1,.29-.11,.59-.07,.93-.71,.3-1.59,.94-2.95,.96-2.14,.03-2.93-1.51-4-1-1.24,.6-.44,2.79-2,4-.03,.02-.06,.04-.09,.06-.29-.06-.59-.09-.91-.06-1.05,.1-1.76,.75-2.37,1.28-.56,.5-1.04,.9-1.63,.72-.82-.24-.72-1.23-1.43-2.31-.15-.23-.33-.46-.57-.69-1.62-1.53-3.4-.79-4-2-.51-1,.67-1.65,1-4,.37-2.7-.89-3.98,0-5,.76-.87,1.82-.09,3-1,1.56-1.21,.76-3.4,2-4,1.07-.51,1.86,1.03,4,1,.84-.01,1.5-.26,2.04-.51h0c.83-.4,1.4-.82,1.96-.49,.84,.5,.1,1.82,1,3,.03,.05,.07,.09,.12,.13,.35,.42,.83,.66,1.35,.79h.01c1.39,.39,3.03,.09,3.52,1.08,.39,.78-.42,1.42-.8,2.67h-.01c-.11,.38-.19,.82-.19,1.33Z" fill="none" stroke="#000" stroke-miterlimit="10"/><path d="M254.63,541.63s-.01,.01-.01,.02c0,.02-.02,.04-.04,.06v-.04c-.04-.34-.03-.64,.07-.92,.1,.29,.12,.58-.02,.88Z" fill="none" stroke="#000" stroke-miterlimit="10"/><path d="M269.31,526.47c.11,.29,.24,.55,.36,.79-.19,.25-.42,.49-.7,.71-1.85,1.42-3.51,.21-4.7,1.57-1.01,1.14-.27,2.5,.01,4.74,.07,.57,.12,1.19,.08,1.89-.04,.04-.08,.07-.13,.1-.86,.48-1.97-.91-3.48-1.75-.71-.4-1.49-.68-2.38-.6-2.27,.22-3.16,2.61-4.54,2.38,.38-1.25,1.19-1.89,.8-2.67-.49-.99-2.13-.69-3.52-1.07h-.01c-.45-.39-.9-.63-1.35-.8-.05-.04-.09-.08-.12-.13-.9-1.18-.16-2.5-1-3-.56-.33-1.13,.09-1.96,.48,.3-.75,.92-1.68,1.15-3.39,.44-3.17-1.04-4.67,0-5.86,.89-1.02,2.14-.1,3.52-1.17,1.83-1.42,.88-3.99,2.34-4.69,1.26-.6,2.18,1.2,4.69,1.17,2.48-.03,3.6-1.81,4.69-1.17,.99,.59,.12,2.14,1.17,3.52,.11,.14,.23,.27,.35,.37,1.68,1.51,4.76,.45,5.51,1.97,.59,1.2-1.2,2.11-1.17,4.69,0,.77,.17,1.39,.39,1.92Z" fill="none" stroke="#000" stroke-miterlimit="10"/><path d="M264.36,536.17c.04-.7-.01-1.32-.08-1.89,.13,.06,.27,.12,.41,.18,.01,.76,.04,1.4-.33,1.71Z" fill="none" stroke="#000" stroke-miterlimit="10"/><path d="M283.63,520.63c-.09,.18-.2,.32-.35,.43-.85,.66-2.61,.27-3.65,1.57-.15,.19-.26,.38-.34,.57-.29,.04-.6,.07-.92,.07-3.35,.04-4.59-2.38-6.27-1.57-1.55,.75-1.06,3.09-2.04,4.96-.13,.02-.28,0-.43-.03-.12-.04-.23-.09-.32-.16-.22-.53-.38-1.15-.39-1.92-.03-2.58,1.76-3.49,1.17-4.69-.75-1.52-3.83-.46-5.51-1.97,.02-.08,.04-.17,.05-.26,.37-2.7-.89-3.98,0-5,.76-.87,1.82-.09,3-1,1.56-1.21,.76-3.4,2-4,1.07-.51,1.86,1.03,4,1,2.11-.02,3.07-1.55,4-1,.84,.5,.1,1.82,1,3,1.33,1.76,4.31,.61,5,2,.51,1.02-1.02,1.8-1,4,.02,1.49,.72,2.32,.99,3.04,.13,.32,.17,.63,.01,.96Z" fill="none" stroke="#000" stroke-miterlimit="10"/><path d="M302,520.37c.41,.96,.97,1.54,.63,2.26-.32,.68-1.1,.77-1.94,.95-.51,.1-1.04,.23-1.51,.55-.59,.04-1.12,.01-1.55,.5-.4,.45-.37,.96-.25,1.62-.48,.2-1.05,.37-1.75,.38-2.14,.03-2.93-1.51-4-1-.65,.31-.74,1.06-.9,1.88-.26,.21-.49,.43-.72,.61-.75-.08-1.51-.22-2.2-.5-.21-.56-.45-1.29-1.18-1.99-.36-.34-.73-.57-1.09-.73-.29-1.36,.07-2.62-.9-3.2-.52-.31-1.04-.2-1.65,.07,.09-.21,.19-.44,.29-.71,.15-.11,.26-.25,.35-.43,.16-.33,.12-.64-.01-.96,.01,0,.01-.03,.01-.04,.37-2.7-.89-3.98,0-5,.76-.87,1.82-.09,3-1,1.56-1.21,.76-3.4,2-4,1.07-.51,1.86,1.03,4,1,2.11-.02,3.07-1.55,4-1,.84,.5,.1,1.82,1,3,1.33,1.76,4.31,.61,5,2,.51,1.02-1.02,1.8-1,4,.01,.71,.17,1.27,.37,1.74Z" fill="none" stroke="#000" stroke-miterlimit="10"/><path d="M283.63,520.63c-.09,.18-.2,.32-.35,.43,.14-.38,.26-.84,.34-1.39,.13,.32,.17,.63,.01,.96Z" fill="none" stroke="#000" stroke-miterlimit="10"/><path d="M264.36,536.17c.04-.7-.01-1.32-.08-1.89,.13,.06,.27,.12,.41,.18,.01,.76,.04,1.4-.33,1.71Z" fill="none" stroke="#000" stroke-miterlimit="10"/><path d="M312.03,537.63c-.01,.47-.09,.83-.4,1-.2,.11-.41,.11-.64,.02,.1-.07,.21-.14,.32-.22,.31-.24,.54-.51,.72-.8Z" fill="none" stroke="#000" stroke-miterlimit="10"/><path d="M315.01,533.51c-.64,.12-1.34,.25-1.93,.69,.15-.31,.37-.56,.7-.72,.42-.21,.81-.15,1.23,.03Z" fill="none" stroke="#000" stroke-miterlimit="10"/><path d="M329.85,544.61c.02,2.66,1.85,3.61,1.23,4.94-.73,1.57-3.43,.59-4.94,2.47-.56,.7-.71,1.48-.75,2.22-.49,.21-1.06,.38-1.76,.39-2.14,.03-2.93-1.51-4-1-.36,.17-.54,.48-.67,.85-.08,0-.16,0-.24,.01-.22,.02-.43,.06-.62,.12,.39-.82,.84-1.36,.53-1.98-.69-1.39-3.67-.24-5-2-.9-1.18-.16-2.5-1-3-.64-.38-1.29,.23-2.32,.65-.23-.46-.47-1.02-.48-1.8-.02-1.8,1.23-2.43,.82-3.27-.45-.89-2.04-.5-3.23-.99-.23-1.1-.42-1.88,.18-2.56,.87-.99,2.06-.24,3.39-1.01,.1-.07,.21-.14,.32-.22,.31-.24,.54-.51,.72-.8,.71-1.13,.62-2.53,1.05-3.43,.15-.31,.37-.56,.7-.72,.42-.21,.81-.15,1.23,.03,.89,.36,1.91,1.23,3.71,1.21,2.62-.03,3.8-1.92,4.95-1.24,1.04,.62,.13,2.25,1.23,3.71,1.64,2.17,5.33,.75,6.18,2.47,.63,1.26-1.26,2.23-1.23,4.95Z" fill="none" stroke="#000" stroke-miterlimit="10"/><path d="M309.83,546.48c.01,.78,.25,1.34,.48,1.8-.47,.19-1.02,.34-1.68,.35-.7,.01-1.26-.15-1.72-.35-.97-.41-1.56-.99-2.28-.65-1.24,.6-.44,2.79-2,4-.02,.02-.04,.03-.06,.04t-.02,.01c-.2,.09-.42,.2-.66,.33t-.02,.01c-.87,.26-1.65-.07-2.24,.61-.97,.01-1.66-.3-2.23-.58-.01,0-.02-.02-.03-.02-1.26-1.03-2.59-.53-3.06-1.47-.41-.82,.55-1.34,.82-3.26,.15-1.12-.04-1.94-.17-2.58v-.02c.13-.37,.16-.71-.02-1.08-.01-.02-.02-.03-.02-.04h0c.04-.14,.11-.26,.21-.37,.44-.5,1-.33,1.63-.45h.01c.26-.05,.53-.16,.81-.37,1.27-.98,.62-2.77,1.63-3.26,.88-.42,1.52,.83,3.27,.81h.03c.74-.02,1.31-.26,1.78-.49h.01c.39-.09,.75-.2,1.01-.41,.15-.02,.3,0,.44,.09,.69,.41,.08,1.48,.81,2.45,.24,.31,.53,.51,.86,.64,1.19,.49,2.78,.1,3.23,.99,.41,.84-.84,1.47-.82,3.27Z" fill="none" stroke="#000" stroke-miterlimit="10"/><path d="M294.96,544.7c-.09-.45-.15-.81-.04-1.12,0,.01,0,.02,.02,.04,.18,.37,.15,.71,.02,1.08Z" fill="none" stroke="#000" stroke-miterlimit="10"/><path d="M302.55,551.68c-.23,.17-.45,.27-.66,.33,.24-.13,.46-.24,.66-.33Z" fill="none" stroke="#000" stroke-miterlimit="10"/><path d="M305.31,539.04c-.26,.21-.62,.32-1.01,.41,.39-.2,.72-.38,1.01-.41Z" fill="none" stroke="#000" stroke-miterlimit="10"/><path d="M294.05,542.08c-.13,.28-.32,.5-.54,.67-.66,.51-1.66,.62-2.71,.84-1.07,.23-2.19,.59-3.02,1.62-1.88,2.34-.15,5.48-1.57,6.27-1.5,.83-3.59-2.59-6.67-3.08-.37-.07-.76-.09-1.17-.05-3.15,.29-4.3,3.71-6.27,3.13-.23-.07-.41-.17-.56-.32-.89-.78-.73-2.64-2.57-4.38-2.54-2.41-5.33-1.25-6.27-3.14-.79-1.57,1.06-2.58,1.57-6.27,.06-.42,.09-.83,.09-1.2,.37-.31,.34-.95,.33-1.71-.14-.06-.28-.12-.41-.18-.28-2.24-1.02-3.6-.01-4.74,1.19-1.36,2.85-.15,4.7-1.57,.28-.22,.51-.46,.7-.71,.15-.19,.28-.39,.39-.6,.98-1.87,.49-4.21,2.04-4.96,1.68-.81,2.92,1.61,6.27,1.57,.32,0,.63-.03,.92-.07,.08-.19,.19-.38,.34-.57,1.04-1.3,2.8-.91,3.65-1.57-.1,.27-.2,.5-.29,.71,.61-.27,1.13-.38,1.65-.07,.97,.58,.61,1.84,.9,3.2,.36,.16,.73,.39,1.09,.73,.73,.7,.97,1.43,1.18,1.99,.69,.28,1.45,.42,2.2,.5,.19,.03,.38,.05,.56,.07,1.54,.16,2.95,.28,3.48,1.35,.79,1.6-1.6,2.82-1.57,6.27,.03,3.38,2.36,4.58,1.57,6.27Z" fill="none" stroke="#000" stroke-miterlimit="10"/><path d="M305.63,538.63c-.08,.17-.19,.3-.32,.41-.29,.03-.62,.21-1.01,.41h-.01c-.56,.12-1.2,.2-1.78,.49h-.03c-1.75,.02-2.39-1.23-3.27-.81-1.01,.49-.36,2.28-1.63,3.26-.28,.21-.55,.32-.81,.37h-.01c-.63,.12-1.19-.05-1.63,.45-.1,.11-.17,.23-.21,.36h0c-.11,.32-.05,.68,.04,1.13v.02c.13,.64,.32,1.46,.17,2.58-.27,1.92-1.23,2.44-.82,3.26,.47,.94,1.8,.44,3.06,1.47-.67-.35-1.16-.67-1.74-.4-.32,.15-.5,.41-.63,.73h0c-.14,.38-.21,.85-.31,1.32h0c-.94,1.04-3.26,.4-4.61,2.08-.65,.81-.74,1.74-.74,2.58-.59,.11-1.24,.16-1.99,.05-2.77-.42-3.47-2.57-4.97-2.13-1.11,.33-1.27,1.7-1.84,2.96-.73,.58-1.3,1.23-1.94,1.39,.15-.34,.2-.65,.03-.98-.3-.6-1.04-.73-1.89-.82h-.01c-.97-.11-2.07-.18-2.83-.88,.11-.5,.04-1.2,.06-1.95,.01-.87,.14-1.82,.8-2.65,1.61-2.01,4.49-.96,5.27-2.63,.36-.77-.04-1.41-.49-2.3,3.08,.49,5.17,3.91,6.67,3.08,1.42-.79-.31-3.93,1.57-6.27,.83-1.03,1.95-1.39,3.02-1.62,1.05-.22,2.05-.33,2.71-.84,.22-.17,.41-.39,.54-.67,.79-1.69-1.54-2.89-1.57-6.27-.03-3.45,2.36-4.67,1.57-6.27-.53-1.07-1.94-1.19-3.48-1.35,.06-.23,.11-.45,.16-.68,.16-.82,.25-1.57,.9-1.88,1.07-.51,1.86,1.03,4,1,.7-.01,1.27-.18,1.75-.38,.12,.61,.31,1.36,.32,2.33,0,.32-.02,.67-.07,1.05-.33,2.35-1.51,3-1,4,.6,1.21,2.38,.47,4,2,1.37,1.31,1,2.71,2,3,.94,.28,1.59-.88,2.71-1.56,.3,.58,.54,1.04,.29,1.56Z" fill="none" stroke="#000" stroke-miterlimit="10"/><path d="M278.6,560.61c-.21,.07-.43,.07-.66,0-.73-.21-.86-.92-1.2-1.8,.85,.09,1.59,.22,1.89,.82,.17,.33,.12,.64-.03,.98Z" fill="none" stroke="#000" stroke-miterlimit="10"/><path d="M305.31,539.04c-.26,.21-.62,.32-1.01,.41,.39-.2,.72-.38,1.01-.41Z" fill="none" stroke="#000" stroke-miterlimit="10"/><path d="M315.63,528.63c.02,2.16,1.5,2.93,1,4-.28,.59-.91,.73-1.62,.88-.42-.18-.81-.24-1.23-.03-.33,.16-.55,.41-.7,.72-.16,.12-.31,.26-.45,.43-.78,.97-.59,2.16-.6,3-.18,.29-.41,.56-.72,.8-.11,.08-.22,.15-.32,.22-1.03-.36-2.42-2.2-4.36-2.02-.5,.05-.92,.22-1.29,.44-1.12,.68-1.77,1.84-2.71,1.56-1-.29-.63-1.69-2-3-1.62-1.53-3.4-.79-4-2-.51-1,.67-1.65,1-4,.05-.38,.07-.73,.07-1.05-.01-.97-.2-1.72-.32-2.33-.12-.66-.15-1.17,.25-1.62,.43-.49,.96-.46,1.55-.5,.45-.03,.94-.11,1.45-.5,.02-.02,.04-.03,.06-.05,.84-.18,1.62-.27,1.94-.95,.34-.72-.22-1.3-.63-2.26,.13-.32,.31-.59,.63-.74,1.07-.51,1.86,1.03,4,1,2.11-.02,3.07-1.55,4-1,.84,.5,.1,1.82,1,3,1.33,1.76,4.31,.61,5,2,.51,1.02-1.02,1.8-1,4Z" fill="none" stroke="#000" stroke-miterlimit="10"/><path d="M270.08,596.3c-.91,1.14-.07,2.67-.76,3.05-.82,.45-2-1.7-3.81-1.53-1.53,.14-2.09,1.81-3.05,1.53-.76-.22-.48-1.29-1.53-2.29-1.23-1.17-2.59-.61-3.05-1.53-.38-.77,.52-1.26,.76-3.05,.29-2.06-.68-3.04,0-3.81,.58-.66,1.39-.07,2.29-.76,1.19-.92,.58-2.59,1.53-3.05,.82-.39,1.42,.78,3.05,.76,1.61-.02,2.35-1.18,3.05-.76,.65,.38,.08,1.39,.76,2.29,1.01,1.34,3.29,.47,3.81,1.53,.39,.78-.78,1.38-.76,3.05,.01,1.65,1.15,2.23,.76,3.05-.45,.97-2.12,.36-3.05,1.53Z" fill="none" stroke="#000" stroke-miterlimit="10"/></g><g><path d="M541.71,645.9h-27l5-59c-3.22-.33-8.95-1.34-15-5-4.96-3-8.17-6.59-10-9-2.4-.44-6.13-1.45-10-4-6.14-4.05-8.94-9.55-10-12,1.33,.33,2.67,.67,4,1,1.68,1.91,3.67,3.95,6,6,1.72,1.52,3.4,2.84,5,4l-3-9c2.33,.33,4.67,.67,7,1,.5,2.05,2.59,9.6,10,15,6.74,4.92,13.75,5.05,16,5,.33-3,.67-6,1-9-1.38,.17-5.6,.5-10-2-4.64-2.64-6.49-6.74-7-8h4c.7,1.05,2.56,3.56,6,5,2.51,1.05,4.76,1.08,6,1v-7c2.33-.67,4.67-1.33,7-2,.98-.64,2.68-1.57,5-2,2.12-.39,3.89-.2,5,0,.33,6.67,.67,13.33,1,20,2.03,.44,6.81,1.18,12-1,9.38-3.94,11.76-13.9,12-15h4c-1,2.33-2,4.67-3,7,1.07,.21,2.45,.32,4,0,5.24-1.1,7.65-6.23,8-7h5c-2.72,3.04-6.65,6.73-12,10-2.85,1.74-5.57,3.03-8,4-2.28,1.84-5.61,4.13-10,6-4.28,1.82-8.14,2.62-11,3l3,63Z" fill="none" stroke="#000" stroke-miterlimit="10"/><path d="M473.71,555.9c-5.34,.52-11.02,.88-17,1-3.09,.06-6.09,.06-9,0-5.14-1.85-8.06-7.11-7-12,.89-4.15,4.51-7.4,9-8-.28-.44-2.07-3.38-1-7,.95-3.2,3.46-4.7,4-5,.13-.89,.63-3.63,3-6,.63-.63,2.69-2.53,6-3-.51-1.59-4.23-13.95,3-23,1.87-2.33,4.04-3.92,6-5-.04-.29-.7-6.4,4-10,3.38-2.59,7.23-2.11,8-2-.42-3.45,1.23-6.68,4-8,2.77-1.33,5.53-.2,6,0-.32-1.22-.25-2.2,0-3,1.6-5.04,12.1-7.21,26-6-.42-1.18-.76-2.79,0-4,1.28-2.04,4.61-1.23,13-1,8.7,.24,11.63-.45,14,2,1.24,1.28,1.76,2.83,2,4,1.32,.14,4.34,.65,7,3,5.04,4.46,4.09,11.41,4,12,.73-.24,5.4-1.69,10,1,5.53,3.23,5.97,9.51,6,10,1.72,.22,8.36,1.27,13,7,4.8,5.92,5.56,14.5,2,22,1.27,.17,4.98,.85,8,4,1.76,1.84,2.6,3.79,3,5,.36,.08,3.54,.84,5,4,1.35,2.92,.18,5.61,0,6,6.22,2.83,9.82,9.03,9,15-.87,6.28-6.24,9.56-7,10-21,.33-42,.67-63,1-1.47-1.4-3.8-3.2-7-4-5.63-1.42-9.96,1.27-15,3-6.37,2.19-12.58,1.79-25,1-8.99-.58-17.05-2.11-24-4Z" fill="none" stroke="#000" stroke-miterlimit="10"/></g><g><path d="M81.78,626.9c24.74-.33,49.49-.67,74.23-1-6-6.67-12-13.33-18-20h12c-5.67-7-11.33-14-17-21h11c-8.67-9.67-17.33-19.33-26-29-8.33,9.67-16.67,19.33-25,29h11l-18,21h12l-16.23,21Z" fill="none" stroke="#000" stroke-miterlimit="10"/><polygon points="115.71 626.74 115.02 646.9 122.02 646.9 121.44 626.38 115.71 626.74" fill="none" stroke="#000" stroke-miterlimit="10"/></g><g><path d="M312.71,194.9c-1.33-27.67-2.67-55.33-4-83,.23-.71,.58-1.75,1-3,2.17-6.43,3.26-9.64,4-11,2.04-3.73,6.71-8.19,11-8,5.53,.24,11.47,8.24,12,20,.33-.33,.67-.67,1-1,.03-1.91-.12-4.73-1-8-.6-2.21-1.23-4.56-3-7-1.13-1.55-4.26-5.87-9-6-3.85-.11-7.44,2.57-8,3-.03,.02-.13,.1-.27,.21-3.32,2.67-4.72,6.17-5.73,8.79-.73,1.89-1.58,4.6-2,8v-26c.33-1.61,1.54-6.46,6-10,2.23-1.77,4.48-2.6,6-3-.33-.33-.67-.67-1-1-1.74,.12-3.97,.57-6,2-4.5,3.17-5.22,9.18-6,9-.7-.16,1.09-4.85-1-10-1.2-2.97-2.97-4.97-4-6-1.46-1.46-2.92-2.4-4-3-.33,.67-.67,1.33-1,2,1.39,1.16,3.39,3.11,5,6,2.28,4.08,2.58,7.88,3,14,.19,2.71,.31,6.47,0,11,.79-12.05-8.56-20.53-16-20-7.42,.53-15.44,10.21-13,22h1c-.68-10.3,4.88-18.11,11-19,5.8-.84,10.76,4.73,11,5,2.14,2.46,3.01,5.17,4,14,1.29,11.47,.1,23.38,0,21-.25-6.24-5.76-10.67-11-10-5.44,.69-9.73,6.74-8,13h1c-.1-5.91,3.44-10.48,7-11,4.24-.61,10.15,4.29,10,12l-3,76h13v-1Z" fill="none" stroke="#000" stroke-miterlimit="10"/><path d="M300.71,146.9c-2.15,.39-7.97,1.13-14-2-1.44-.75-4.62-2.45-7-6-4.54-6.77-2.4-14.61-2-16-2.01-1.08-4.78-2.92-7-6-1.18-1.64-4.26-6.48-2-26,2.31-19.93,6.55-23.81,8-25,3.17-2.6,6.67-3.58,9-4,1.61-13.5,11.46-22.93,21-23,13.39-.09,20.38,18.3,21,20,1.89,5.18,2.12,9.86,2,13,1.83,.1,4.43,.51,7,2,8.11,4.69,8.95,16,10,30,.94,12.57-1.01,16.55-3,19-2.24,2.77-5.05,4.22-7,5,.44,1.39,1.08,4.13,0,7-.97,2.58-2.95,4.26-6,6-6.98,3.99-14.73,5.52-20.11,6.15" fill="none" stroke="#000" stroke-miterlimit="10"/></g><g><polygon points="165.71 646.9 168.71 574.9 158.71 569.9 144.71 566.9 156.71 566.9 135.71 547.9 153.71 558.9 151.71 547.9 157.71 561.9 167.71 568.9 168.71 540.9 154.71 531.9 140.71 528.9 149.71 527.9 140.71 514.9 157.71 530.9 159.71 517.9 161.71 531.9 168.71 534.9 168.71 508.9 158.71 498.9 168.71 505.9 170.71 491.9 172.71 506.9 185.71 498.9 172.71 509.9 172.71 529.9 192.71 510.9 187.71 518.9 198.71 519.9 185.71 521.9 172.71 533.9 172.71 564.9 185.71 555.9 188.71 539.9 188.71 554.9 208.71 537.9 198.71 549.9 209.71 549.9 196.71 551.9 183.71 561.9 200.71 563.9 180.71 564.9 173.71 569.9 176.71 646.9 165.71 646.9" fill="none" stroke="#000" stroke-miterlimit="10"/><path d="M168.71,574.9c-14.67,5.8-27.88,3.19-32-4-.79-1.37-2.18-4.53-1-10-7.13-2.3-12.25-8.6-13-16-.73-7.2,2.78-14.22,9-18-4.57-5.66-5.72-13.34-3-20,4.05-9.9,14.35-11.89,15-12,1.72-1.79,11.82-12,28-12,15.28,0,25.05,9.1,27,11,.51,.07,12.41,1.89,17,13,4.23,10.24-1.51,19.26-2,20,6.35,3.95,9.89,11.03,9,18-1.09,8.51-8.61,15.45-18,16,1.58,4.84,.61,7.72,0,9-3.18,6.67-15.44,9.65-30,5" fill="none" stroke="#000" stroke-miterlimit="10"/></g><polygon points="199.99 645.9 253.99 645.9 241.99 629.9 249.99 629.9 236.99 611.9 243.99 611.9 227.99 590.9 210.99 612.9 217.99 612.9 204.99 629.9 213.99 629.9 199.99 645.9" fill="none" stroke="#000" stroke-miterlimit="10"/><path d="M305.71,413.9v-9h-6v-3h6v-7h-3v-2h3v-10l-9,10-2-10-10,10-1-9-12,8,2-7-11,7,19-26-6,3,3-10-10,10,17-25-5,3v-7l-8,8,16-25-4,2,1-6-7,7,11-18-2,1,3-7-8,8,11-17-2-5-4,4,10-15-5-1c3.23-4.27,6.75-9.59,10-16,3.96-7.81,6.43-15.05,8-21,.87,4.99,2.56,11.67,6,19,3.51,7.47,7.66,13.12,11,17-1.67,.33-3.33,.67-5,1,3.67,5,7.33,10,11,15l-5-3v4l10,17-5-5-1,4,9,17-6-5,1,5-5-4,15,24-9-8,4,9-4-3,15,26-8-8,3,8-10-6,20,29-11-11,3,13-12-12-1,11-9-11-4,11-8-11v14h4v3h-4v6h4v2h-4v7h-10Z" fill="none" stroke="#000" stroke-miterlimit="10"/><g><path d="M471.5,194.06h-9v-42l-7-2,1-3,6,2,1-30-6-1,1-3,5,1,1-21c-1.95-.16-7.27-.85-12-5-6.92-6.07-7.01-14.65-7-16h2c-.01,1.38,.09,7.67,5,13,4.68,5.08,10.55,5.85,12,6,.33-14.67,.67-29.33,1-44-.63,.04-1.3,.04-2,0-4.49-.28-7.94-2.4-10-4-.8,.45-6.86,3.75-13,1-2.5-1.12-4.11-2.84-5-4,.48-.51,1.23-1.13,2-1,.81,.14,1.09,1.01,2,2,0,0,.94,1.02,3,2,3.41,1.62,8.43-.72,9-1-1.24-1.62-2.77-3.95-4-7-1.26-3.13-1.78-5.94-2-8l2-1c.26,1.25,.58,2.59,1,4,.32,1.06,.65,2.06,1,3,1.33-.33,3.09-.92,5-2,1.75-.99,3.07-2.1,4-3l2,1c-.99,1.37-2.9,3.58-6,5-1.08,.5-2.1,.81-3,1,.5,1.37,1.38,3.23,3,5,4.03,4.41,9.51,4.91,11,5V18.06h2v9c.62,.08,1.3,.09,2,0,4.02-.52,6.39-4.04,7-5l2,1c-.81,1.2-2.69,3.6-6,5-1.52,.65-2.92,.9-4,1v20c2.09,.41,6,.84,10-1,6.42-2.94,10.39-10.47,10-19l2-1c.22,2.58,.34,8.3-3,14-1.26,2.16-2.72,3.8-4,5,1.43,.6,5.24,1.96,10,1,4.11-.83,6.82-2.95,8-4,.33,.33,.67,.67,1,1-.65,.8-1.32,1.45-2,2-6.67,5.39-16.54,2.73-19,2-1.02,.84-3.04,2.29-6,3-3.12,.75-5.7,.31-7,0v46c2.39-.47,7.42-1.8,12-6,7.07-6.48,7.87-14.98,8-17h2v6c1.02-.08,2.44-.32,4-1,2.67-1.17,4.26-3.01,5-4h1c-.57,1.18-1.76,3.22-4,5-2.79,2.22-5.66,2.81-7,3-.87,2.3-3.27,7.72-9,12-4.78,3.57-9.57,4.63-12,5,.33,10.33,.67,20.67,1,31l5-2v2l-5,2,2,60Z" fill="none" stroke="#000" stroke-miterlimit="10"/><path d="M465.5,59.06h-31c-1.35-.49-8.49-3.22-12-11-4.24-9.4,.48-18.08,1-19-1.39-5.32,1.04-10.41,5-12,3.77-1.52,7.51,.7,8,1,.27-6.98,4.11-13.22,10-16,7.63-3.6,17.55-.86,23,7,.56-.34,8.52-4.95,16-1,3.36,1.77,5.17,4.51,6,6,2.56-2.27,6.45-2.27,9,0,2.57,2.28,3.01,6.19,1,9,1.92,.53,8.76,2.68,12,9,4.12,8.02,.87,19.73-9,27h-36" fill="none" stroke="#000" stroke-miterlimit="10"/><path d="M449.5,80.06h8c2.4-1.92,3.22-5.22,2-8-1.18-2.71-4.04-4.34-7-4-1.01-2.42-3.38-4-6-4s-4.99,1.58-6,4c-2.53-.09-4.89,1.05-6,3-1.56,2.76-.47,6.91,3,9h8" fill="none" stroke="#000" stroke-miterlimit="10"/><path d="M485.5,84.06h-9c-3.95-1.84-5.99-6.15-5-10,1.15-4.43,6.09-7.36,11-6,.4-4.19,4.05-7.26,8-7,3.6,.24,6.65,3.19,7,7,4.83-.23,9,2.84,10,7,.76,3.18-.42,6.64-3,9h-15" fill="none" stroke="#000" stroke-miterlimit="10"/></g><polygon points="502.99 413.9 556.99 413.9 544.99 397.9 552.99 397.9 539.99 379.9 546.99 379.9 530.99 358.9 513.99 380.9 520.99 380.9 507.99 397.9 516.99 397.9 502.99 413.9" fill="none" stroke="#000" stroke-miterlimit="10"/><g><path d="M101.71,414.9h-27l5-59c-3.22-.33-8.95-1.34-15-5-4.96-3-8.17-6.59-10-9-2.4-.44-6.13-1.45-10-4-6.14-4.05-8.94-9.55-10-12,1.33,.33,2.67,.67,4,1,1.68,1.91,3.67,3.95,6,6,1.72,1.52,3.4,2.84,5,4l-3-9c2.33,.33,4.67,.67,7,1,.5,2.05,2.59,9.6,10,15,6.74,4.92,13.75,5.05,16,5,.33-3,.67-6,1-9-1.38,.17-5.6,.5-10-2-4.64-2.64-6.49-6.74-7-8h4c.7,1.05,2.56,3.56,6,5,2.51,1.05,4.76,1.08,6,1v-7c2.33-.67,4.67-1.33,7-2,.98-.64,2.68-1.57,5-2,2.12-.39,3.89-.2,5,0,.33,6.67,.67,13.33,1,20,2.03,.44,6.81,1.18,12-1,9.38-3.94,11.76-13.9,12-15h4c-1,2.33-2,4.67-3,7,1.07,.21,2.45,.32,4,0,5.24-1.1,7.65-6.23,8-7h5c-2.72,3.04-6.65,6.73-12,10-2.85,1.74-5.57,3.03-8,4-2.28,1.84-5.61,4.13-10,6-4.28,1.82-8.14,2.62-11,3l3,63Z" fill="none" stroke="#000" stroke-miterlimit="10"/><path d="M33.71,324.9c-5.34,.52-11.02,.88-17,1-3.09,.06-6.09,.06-9,0-5.14-1.85-8.06-7.11-7-12,.89-4.15,4.51-7.4,9-8-.28-.44-2.07-3.38-1-7,.95-3.2,3.46-4.7,4-5,.13-.89,.63-3.63,3-6,.63-.63,2.69-2.53,6-3-.51-1.59-4.23-13.95,3-23,1.87-2.33,4.04-3.92,6-5-.04-.29-.7-6.4,4-10,3.38-2.59,7.23-2.11,8-2-.42-3.45,1.23-6.68,4-8,2.77-1.33,5.53-.2,6,0-.32-1.22-.25-2.2,0-3,1.6-5.04,12.1-7.21,26-6-.42-1.18-.76-2.79,0-4,1.28-2.04,4.61-1.23,13-1,8.7,.24,11.63-.45,14,2,1.24,1.28,1.76,2.83,2,4,1.32,.14,4.34,.65,7,3,5.04,4.46,4.09,11.41,4,12,.73-.24,5.4-1.69,10,1,5.53,3.23,5.97,9.51,6,10,1.72,.22,8.36,1.27,13,7,4.8,5.92,5.56,14.5,2,22,1.27,.17,4.98,.85,8,4,1.76,1.84,2.6,3.79,3,5,.36,.08,3.54,.84,5,4,1.35,2.92,.18,5.61,0,6,6.22,2.83,9.82,9.03,9,15-.87,6.28-6.24,9.56-7,10-21,.33-42,.67-63,1-1.47-1.4-3.8-3.2-7-4-5.63-1.42-9.96,1.27-15,3-6.37,2.19-12.58,1.79-25,1-8.99-.58-17.05-2.11-24-4Z" fill="none" stroke="#000" stroke-miterlimit="10"/></g><polygon points="109.99 414.9 163.99 414.9 151.99 398.9 159.99 398.9 146.99 380.9 153.99 380.9 137.99 359.9 120.99 381.9 127.99 381.9 114.99 398.9 123.99 398.9 109.99 414.9" fill="none" stroke="#000" stroke-miterlimit="10"/><g><path d="M92.03,195.21h-8l1-43c-1.11,.09-3.42,.13-6-1-2.75-1.21-4.33-3.1-5-4l1-1c.69,.8,1.99,2.08,4,3,2.57,1.17,4.9,1.1,6,1v-14c-5.67-1.67-11.33-3.33-17-5h-14l1-1c1.37,.13,3.07,.19,5,0,1.97-.19,3.66-.59,5-1-2.01-1.15-5.18-3.31-8-7-3.31-4.32-4.51-8.63-5-11h2c1.09,2.86,4.75,11.31,14,17,7,4.31,13.78,4.92,17,5v-4h6v11c2.62-.25,7.94-1.13,13-5,9.27-7.09,9.93-18.26,10-20,.67,.33,1.33,.67,2,1,.08,2.4,.01,9.57-5,16-2.37,3.05-5.07,4.91-7,6,2.08,.56,4.43,.95,7,1,.34,0,.67,0,1,0l1,1c-.84,.39-1.84,.76-3,1-3.98,.84-7.35-.3-9-1-3.33,1.33-6.67,2.67-10,4l1,51Z" fill="none" stroke="#000" stroke-miterlimit="10"/><path d="M128.03,140.21c-1.2,1.49-.1,3.5-1,4-1.07,.6-2.62-2.23-5-2-2.01,.19-2.75,2.37-4,2-1-.29-.63-1.7-2-3-1.62-1.53-3.4-.79-4-2-.5-1.01,.68-1.65,1-4,.37-2.71-.89-3.98,0-5,.76-.87,1.82-.09,3-1,1.56-1.21,.76-3.4,2-4,1.07-.52,1.86,1.02,4,1,2.12-.02,3.08-1.55,4-1,.85,.5,.11,1.82,1,3,1.33,1.75,4.31,.61,5,2,.51,1.02-1.02,1.8-1,4,.02,2.16,1.5,2.92,1,4-.59,1.27-2.78,.48-4,2Z" fill="none" stroke="#000" stroke-miterlimit="10"/><path d="M51.95,131.94c-1.2,1.49-.1,3.5-1,4-1.07,.6-2.62-2.23-5-2-2.01,.19-2.75,2.37-4,2-1-.29-.63-1.7-2-3-1.62-1.53-3.4-.79-4-2-.5-1.01,.68-1.65,1-4,.37-2.71-.89-3.98,0-5,.76-.87,1.82-.09,3-1,1.56-1.21,.76-3.4,2-4,1.07-.52,1.86,1.02,4,1,2.12-.02,3.08-1.55,4-1,.85,.5,.11,1.82,1,3,1.33,1.75,4.31,.61,5,2,.51,1.02-1.02,1.8-1,4,.02,2.16,1.5,2.92,1,4-.59,1.27-2.78,.48-4,2Z" fill="none" stroke="#000" stroke-miterlimit="10"/><path d="M102.11,126.31c-1.03,1.52-3.7,.04-5.59,1.75-1.87,1.69-.86,4.51-2.13,4.97-1.51,.55-2.93-3.42-6.06-3.63-2.63-.17-4.04,2.5-5.59,1.75-1.23-.59-.46-2.32-1.96-4.29-1.77-2.33-4.23-1.74-4.76-3.43-.04-.12-.06-.23-.06-.34-.1-1.18,1.36-1.9,2.19-4.62,1.05-3.43-.32-5.35,1.04-6.47,1-.83,2.03-.05,3.38-.4,.22-.05,.46-.14,.71-.27,.81-.44,1.26-1.11,1.58-1.8,.57-1.26,.73-2.63,1.84-2.96,1.5-.44,2.2,1.71,4.97,2.13,.75,.11,1.4,.06,1.99-.05,.36-.07,.7-.17,1.01-.27,1.03-.31,1.79-.64,2.39-.14,.99,.83-.25,2.38,.66,4.09,1.36,2.55,5.45,1.69,6.06,3.63,.38,1.25-1.2,1.94-1.89,4-.11,.29-.19,.61-.24,.97-.43,2.79,1.33,4.09,.46,5.38Z" fill="none" stroke="#000" stroke-miterlimit="10"/><path d="M106.87,101.99c-.23,.17-.45,.27-.66,.33,.24-.13,.46-.24,.66-.33Z" fill="none" stroke="#000" stroke-miterlimit="10"/><path d="M113.9,115.01c-.62,1.17-2.75,.44-3.95,1.93-1.2,1.5-.1,3.5-1,4-1.07,.6-2.62-2.22-5-2-.88,.09-1.52,.55-2.06,1.02,.69-2.06,2.27-2.75,1.89-4-.61-1.94-4.7-1.08-6.06-3.63-.91-1.71,.33-3.26-.66-4.09-.6-.5-1.36-.17-2.39,.14-.31,.1-.65,.2-1.01,.27,0-.84,.09-1.77,.74-2.58,1.35-1.68,3.67-1.04,4.61-2.07h0c.11-.11,.19-.23,.25-.36,.16-.34,.15-.64,.06-.96h0c.13-.33,.31-.59,.63-.74,.58-.27,1.07,.05,1.74,.4,.01,0,.02,.01,.03,.02,.57,.28,1.26,.59,2.23,.58-.48,.55-.34,1.17-.16,2.05,.15,.75,.33,1.7,.16,2.95-.33,2.35-1.51,3-1,4,.6,1.21,2.38,.47,4,2,1.37,1.31,1,2.71,2,3,1.25,.37,1.99-1.81,4-2,.33-.03,.65,0,.95,.07Z" fill="none" stroke="#000" stroke-miterlimit="10"/><path d="M99.26,103.64c-.06,.13-.14,.25-.25,.35,.1-.47,.17-.94,.31-1.31,.09,.32,.1,.62-.06,.96Z" fill="none" stroke="#000" stroke-miterlimit="10"/><path d="M136.95,112.94c.02,2.16,1.5,2.93,1,4-.59,1.27-2.78,.48-4,2-1.2,1.5-.1,3.5-1,4-1.07,.6-2.62-2.22-5-2-2.01,.19-2.75,2.37-4,2-1-.29-.63-1.69-2-3-1.62-1.53-3.4-.79-4-2-.17-.34-.15-.64-.04-.99,.01,0,.03,0,.04-.01,.3-.17,.38-.51,.4-.95,.23-.52,.48-1.16,.6-2.05,.05-.39,.07-.74,.07-1.07-.02-1.99-.83-3.06-.07-3.93s1.82-.09,3-1c.04-.03,.07-.06,.1-.09-.06-.27-.1-.58-.1-.91-.01-.86,.22-1.5,.47-2.02,.19-.06,.4-.1,.62-.12,.08-.01,.16-.01,.24-.01,.13-.37,.31-.68,.67-.85,1.07-.51,1.86,1.03,4,1,.7-.01,1.27-.18,1.76-.39,.98-.42,1.62-.98,2.24-.61,.84,.5,.1,1.82,1,3,1.33,1.76,4.31,.61,5,2,.51,1.02-1.02,1.8-1,4Z" fill="none" stroke="#000" stroke-miterlimit="10"/><path d="M118.35,115.99c-.02,.44-.1,.78-.4,.95-.01,.01-.03,.01-.04,.01,.1-.28,.27-.58,.44-.96Z" fill="none" stroke="#000" stroke-miterlimit="10"/><path d="M118.35,115.99c-.02,.44-.1,.78-.4,.95-.01,.01-.03,.01-.04,.01,.1-.28,.27-.58,.44-.96Z" fill="none" stroke="#000" stroke-miterlimit="10"/><path d="M82.92,110.92c-.09,.21-.21,.43-.35,.68-1.35,.35-2.38-.43-3.38,.4-1.36,1.12,.01,3.04-1.04,6.47-.83,2.72-2.29,3.44-2.19,4.62-.82-.6-1.81-1.26-3.01-1.15-2.01,.19-2.75,2.37-4,2-1-.29-.63-1.69-2-3-1.62-1.53-3.4-.79-4-2-.51-1,.67-1.65,1-4,.37-2.7-.89-3.98,0-5,.76-.87,1.82-.09,3-1,.14-.11,.26-.22,.35-.35,.01,0,.02-.02,.02-.02,1-.7,2.03-2.12,3.85-2.29,3.14-.3,5.18,3.42,6.59,2.64,.25-.14,.39-.38,.46-.68,.76,.7,1.86,.77,2.83,.88h.01c.85,.09,1.59,.22,1.89,.82,.17,.33,.12,.64-.03,.98Z" fill="none" stroke="#000" stroke-miterlimit="10"/><path d="M50.61,108.76c-.87,.19-1.94,.28-2.66,1.18-1.2,1.5-.1,3.5-1,4-1.07,.6-2.62-2.22-5-2-2.01,.19-2.75,2.37-4,2-1-.29-.63-1.69-2-3-1.62-1.53-3.4-.79-4-2-.51-1,.67-1.65,1-4,.37-2.7-.89-3.98,0-5,.76-.87,1.82-.09,3-1,1.56-1.21,.76-3.4,2-4,1.07-.51,1.86,1.03,4,1,.61-.01,1.12-.14,1.57-.31,.71,1.08,.61,2.07,1.43,2.31,.59,.18,1.07-.22,1.63-.72,.02,.08,.05,.16,.09,.24-.24,.95,.59,2.22,.28,4.48-.33,2.35-1.51,3-1,4,.6,1.21,2.38,.47,4,2,.28,.27,.49,.55,.66,.82Z" fill="none" stroke="#000" stroke-miterlimit="10"/><path d="M64.95,100.94c.02,2.16,1.5,2.93,1,4-.31,.68-1.08,.77-1.92,.94-.73,.15-1.51,.35-2.08,1.06-1.2,1.5-.1,3.5-1,4-1.07,.6-2.62-2.22-5-2-2.01,.19-2.75,2.37-4,2-.79-.23-.72-1.15-1.34-2.18-.17-.27-.38-.55-.66-.82-1.62-1.53-3.4-.79-4-2-.51-1,.67-1.65,1-4,.31-2.26-.52-3.53-.28-4.48,.05-.18,.14-.35,.28-.52,.74-.85,1.77-.13,2.91-.94,.03-.02,.06-.04,.09-.06,1.56-1.21,.76-3.4,2-4,1.07-.51,1.86,1.03,4,1,1.36-.02,2.24-.66,2.95-.96v.04s.03-.04,.04-.06c.37-.15,.69-.21,1.01-.02,.84,.5,.1,1.82,1,3,1.33,1.76,4.31,.61,5,2,.51,1.02-1.02,1.8-1,4Z" fill="none" stroke="#000" stroke-miterlimit="10"/><path d="M58.94,91.96s-.02,.04-.04,.06v-.04s.03,0,.04-.02Z" fill="none" stroke="#000" stroke-miterlimit="10"/><path d="M84.35,101.01c-.78,1.67-3.66,.62-5.27,2.63-.66,.83-.79,1.78-.8,2.65-.02,.75,.05,1.45-.06,1.95-.07,.3-.21,.54-.46,.68-1.41,.78-3.45-2.94-6.59-2.64-1.82,.17-2.85,1.59-3.85,2.29,0,0,0,.02-.02,.02-.45,.31-.89,.48-1.4,.33-1.09-.32-.95-1.63-1.87-3.04,.84-.17,1.61-.26,1.92-.94,.5-1.07-.98-1.84-1-4-.02-2.2,1.51-2.98,1-4-.69-1.39-3.67-.24-5-2-.9-1.18-.16-2.5-1-3-.32-.19-.64-.13-1.01,.02,0-.01,.01-.01,.01-.02,.14-.3,.12-.59,.02-.88h0c-.25-.75-1-1.58-1.02-3.12,0-.51,.08-.95,.19-1.33h.01c1.38,.23,2.27-2.16,4.54-2.38,.89-.08,1.67,.2,2.38,.6,1.51,.84,2.62,2.23,3.48,1.75,.05-.03,.09-.06,.13-.1,0,.37-.03,.78-.09,1.2-.51,3.69-2.36,4.7-1.57,6.27,.94,1.89,3.73,.73,6.27,3.14,1.84,1.74,1.68,3.6,2.57,4.38,.15,.15,.33,.25,.56,.32,1.97,.58,3.12-2.84,6.27-3.13,.41-.04,.8-.02,1.17,.05,.45,.89,.85,1.53,.49,2.3Z" fill="none" stroke="#000" stroke-miterlimit="10"/><path d="M58.95,91.94s-.01,.01-.01,.02c0,.02-.02,.04-.04,.06v-.04c-.04-.34-.03-.64,.07-.92,.1,.29,.12,.58-.02,.88Z" fill="none" stroke="#000" stroke-miterlimit="10"/><path d="M68.68,86.48c.04-.7-.01-1.32-.08-1.89,.13,.06,.27,.12,.41,.18,.01,.76,.04,1.4-.33,1.71Z" fill="none" stroke="#000" stroke-miterlimit="10"/><path d="M99.28,95.01c-.09-.45-.15-.81-.04-1.12,0,.01,0,.02,.02,.04,.18,.37,.15,.71,.02,1.08Z" fill="none" stroke="#000" stroke-miterlimit="10"/><path d="M99.26,103.64c-.06,.13-.14,.25-.25,.35,.1-.47,.17-.94,.31-1.31,.09,.32,.1,.62-.06,.96Z" fill="none" stroke="#000" stroke-miterlimit="10"/><path d="M57.95,87.94c.02,1.54,.77,2.37,1.02,3.11h0c-.1,.29-.11,.59-.07,.93-.71,.3-1.59,.94-2.95,.96-2.14,.03-2.93-1.51-4-1-1.24,.6-.44,2.79-2,4-.03,.02-.06,.04-.09,.06-.29-.06-.59-.09-.91-.06-1.05,.1-1.76,.75-2.37,1.28-.56,.5-1.04,.9-1.63,.72-.82-.24-.72-1.23-1.43-2.31-.15-.23-.33-.46-.57-.69-1.62-1.53-3.4-.79-4-2-.51-1,.67-1.65,1-4,.37-2.7-.89-3.98,0-5,.76-.87,1.82-.09,3-1,1.56-1.21,.76-3.4,2-4,1.07-.51,1.86,1.03,4,1,.84-.01,1.5-.26,2.04-.51h0c.83-.4,1.4-.82,1.96-.49,.84,.5,.1,1.82,1,3,.03,.05,.07,.09,.12,.13,.35,.42,.83,.66,1.35,.79h.01c1.39,.39,3.03,.09,3.52,1.08,.39,.78-.42,1.42-.8,2.67h-.01c-.11,.38-.19,.82-.19,1.33Z" fill="none" stroke="#000" stroke-miterlimit="10"/><path d="M58.95,91.94s-.01,.01-.01,.02c0,.02-.02,.04-.04,.06v-.04c-.04-.34-.03-.64,.07-.92,.1,.29,.12,.58-.02,.88Z" fill="none" stroke="#000" stroke-miterlimit="10"/><path d="M73.63,76.78c.11,.29,.24,.55,.36,.79-.19,.25-.42,.49-.7,.71-1.85,1.42-3.51,.21-4.7,1.57-1.01,1.14-.27,2.5,.01,4.74,.07,.57,.12,1.19,.08,1.89-.04,.04-.08,.07-.13,.1-.86,.48-1.97-.91-3.48-1.75-.71-.4-1.49-.68-2.38-.6-2.27,.22-3.16,2.61-4.54,2.38,.38-1.25,1.19-1.89,.8-2.67-.49-.99-2.13-.69-3.52-1.07h-.01c-.45-.39-.9-.63-1.35-.8-.05-.04-.09-.08-.12-.13-.9-1.18-.16-2.5-1-3-.56-.33-1.13,.09-1.96,.48,.3-.75,.92-1.68,1.15-3.39,.44-3.17-1.04-4.67,0-5.86,.89-1.02,2.14-.1,3.52-1.17,1.83-1.42,.88-3.99,2.34-4.69,1.26-.6,2.18,1.2,4.69,1.17,2.48-.03,3.6-1.81,4.69-1.17,.99,.59,.12,2.14,1.17,3.52,.11,.14,.23,.27,.35,.37,1.68,1.51,4.76,.45,5.51,1.97,.59,1.2-1.2,2.11-1.17,4.69,0,.77,.17,1.39,.39,1.92Z" fill="none" stroke="#000" stroke-miterlimit="10"/><path d="M68.68,86.48c.04-.7-.01-1.32-.08-1.89,.13,.06,.27,.12,.41,.18,.01,.76,.04,1.4-.33,1.71Z" fill="none" stroke="#000" stroke-miterlimit="10"/><path d="M87.95,70.94c-.09,.18-.2,.32-.35,.43-.85,.66-2.61,.27-3.65,1.57-.15,.19-.26,.38-.34,.57-.29,.04-.6,.07-.92,.07-3.35,.04-4.59-2.38-6.27-1.57-1.55,.75-1.06,3.09-2.04,4.96-.13,.02-.28,0-.43-.03-.12-.04-.23-.09-.32-.16-.22-.53-.38-1.15-.39-1.92-.03-2.58,1.76-3.49,1.17-4.69-.75-1.52-3.83-.46-5.51-1.97,.02-.08,.04-.17,.05-.26,.37-2.7-.89-3.98,0-5,.76-.87,1.82-.09,3-1,1.56-1.21,.76-3.4,2-4,1.07-.51,1.86,1.03,4,1,2.11-.02,3.07-1.55,4-1,.84,.5,.1,1.82,1,3,1.33,1.76,4.31,.61,5,2,.51,1.02-1.02,1.8-1,4,.02,1.49,.72,2.32,.99,3.04,.13,.32,.17,.63,.01,.96Z" fill="none" stroke="#000" stroke-miterlimit="10"/><path d="M106.32,70.68c.41,.96,.97,1.54,.63,2.26-.32,.68-1.1,.77-1.94,.95-.51,.1-1.04,.23-1.51,.55-.59,.04-1.12,.01-1.55,.5-.4,.45-.37,.96-.25,1.62-.48,.2-1.05,.37-1.75,.38-2.14,.03-2.93-1.51-4-1-.65,.31-.74,1.06-.9,1.88-.26,.21-.49,.43-.72,.61-.75-.08-1.51-.22-2.2-.5-.21-.56-.45-1.29-1.18-1.99-.36-.34-.73-.57-1.09-.73-.29-1.36,.07-2.62-.9-3.2-.52-.31-1.04-.2-1.65,.07,.09-.21,.19-.44,.29-.71,.15-.11,.26-.25,.35-.43,.16-.33,.12-.64-.01-.96,.01,0,.01-.03,.01-.04,.37-2.7-.89-3.98,0-5,.76-.87,1.82-.09,3-1,1.56-1.21,.76-3.4,2-4,1.07-.51,1.86,1.03,4,1,2.11-.02,3.07-1.55,4-1,.84,.5,.1,1.82,1,3,1.33,1.76,4.31,.61,5,2,.51,1.02-1.02,1.8-1,4,.01,.71,.17,1.27,.37,1.74Z" fill="none" stroke="#000" stroke-miterlimit="10"/><path d="M87.95,70.94c-.09,.18-.2,.32-.35,.43,.14-.38,.26-.84,.34-1.39,.13,.32,.17,.63,.01,.96Z" fill="none" stroke="#000" stroke-miterlimit="10"/><path d="M68.68,86.48c.04-.7-.01-1.32-.08-1.89,.13,.06,.27,.12,.41,.18,.01,.76,.04,1.4-.33,1.71Z" fill="none" stroke="#000" stroke-miterlimit="10"/><path d="M116.35,87.94c-.01,.47-.09,.83-.4,1-.2,.11-.41,.11-.64,.02,.1-.07,.21-.14,.32-.22,.31-.24,.54-.51,.72-.8Z" fill="none" stroke="#000" stroke-miterlimit="10"/><path d="M119.33,83.82c-.64,.12-1.34,.25-1.93,.69,.15-.31,.37-.56,.7-.72,.42-.21,.81-.15,1.23,.03Z" fill="none" stroke="#000" stroke-miterlimit="10"/><path d="M134.17,94.92c.02,2.66,1.85,3.61,1.23,4.94-.73,1.57-3.43,.59-4.94,2.47-.56,.7-.71,1.48-.75,2.22-.49,.21-1.06,.38-1.76,.39-2.14,.03-2.93-1.51-4-1-.36,.17-.54,.48-.67,.85-.08,0-.16,0-.24,.01-.22,.02-.43,.06-.62,.12,.39-.82,.84-1.36,.53-1.98-.69-1.39-3.67-.24-5-2-.9-1.18-.16-2.5-1-3-.64-.38-1.29,.23-2.32,.65-.23-.46-.47-1.02-.48-1.8-.02-1.8,1.23-2.43,.82-3.27-.45-.89-2.04-.5-3.23-.99-.23-1.1-.42-1.88,.18-2.56,.87-.99,2.06-.24,3.39-1.01,.1-.07,.21-.14,.32-.22,.31-.24,.54-.51,.72-.8,.71-1.13,.62-2.53,1.05-3.43,.15-.31,.37-.56,.7-.72,.42-.21,.81-.15,1.23,.03,.89,.36,1.91,1.23,3.71,1.21,2.62-.03,3.8-1.92,4.95-1.24,1.04,.62,.13,2.25,1.23,3.71,1.64,2.17,5.33,.75,6.18,2.47,.63,1.26-1.26,2.23-1.23,4.95Z" fill="none" stroke="#000" stroke-miterlimit="10"/><path d="M114.15,96.79c.01,.78,.25,1.34,.48,1.8-.47,.19-1.02,.34-1.68,.35-.7,.01-1.26-.15-1.72-.35-.97-.41-1.56-.99-2.28-.65-1.24,.6-.44,2.79-2,4-.02,.02-.04,.03-.06,.04t-.02,.01c-.2,.09-.42,.2-.66,.33t-.02,.01c-.87,.26-1.65-.07-2.24,.61-.97,.01-1.66-.3-2.23-.58-.01,0-.02-.02-.03-.02-1.26-1.03-2.59-.53-3.06-1.47-.41-.82,.55-1.34,.82-3.26,.15-1.12-.04-1.94-.17-2.58v-.02c.13-.37,.16-.71-.02-1.08-.01-.02-.02-.03-.02-.04h0c.04-.14,.11-.26,.21-.37,.44-.5,1-.33,1.63-.45h.01c.26-.05,.53-.16,.81-.37,1.27-.98,.62-2.77,1.63-3.26,.88-.42,1.52,.83,3.27,.81h.03c.74-.02,1.31-.26,1.78-.49h.01c.39-.09,.75-.2,1.01-.41,.15-.02,.3,0,.44,.09,.69,.41,.08,1.48,.81,2.45,.24,.31,.53,.51,.86,.64,1.19,.49,2.78,.1,3.23,.99,.41,.84-.84,1.47-.82,3.27Z" fill="none" stroke="#000" stroke-miterlimit="10"/><path d="M99.28,95.01c-.09-.45-.15-.81-.04-1.12,0,.01,0,.02,.02,.04,.18,.37,.15,.71,.02,1.08Z" fill="none" stroke="#000" stroke-miterlimit="10"/><path d="M106.87,101.99c-.23,.17-.45,.27-.66,.33,.24-.13,.46-.24,.66-.33Z" fill="none" stroke="#000" stroke-miterlimit="10"/><path d="M109.63,89.35c-.26,.21-.62,.32-1.01,.41,.39-.2,.72-.38,1.01-.41Z" fill="none" stroke="#000" stroke-miterlimit="10"/><path d="M98.37,92.39c-.13,.28-.32,.5-.54,.67-.66,.51-1.66,.62-2.71,.84-1.07,.23-2.19,.59-3.02,1.62-1.88,2.34-.15,5.48-1.57,6.27-1.5,.83-3.59-2.59-6.67-3.08-.37-.07-.76-.09-1.17-.05-3.15,.29-4.3,3.71-6.27,3.13-.23-.07-.41-.17-.56-.32-.89-.78-.73-2.64-2.57-4.38-2.54-2.41-5.33-1.25-6.27-3.14-.79-1.57,1.06-2.58,1.57-6.27,.06-.42,.09-.83,.09-1.2,.37-.31,.34-.95,.33-1.71-.14-.06-.28-.12-.41-.18-.28-2.24-1.02-3.6-.01-4.74,1.19-1.36,2.85-.15,4.7-1.57,.28-.22,.51-.46,.7-.71,.15-.19,.28-.39,.39-.6,.98-1.87,.49-4.21,2.04-4.96,1.68-.81,2.92,1.61,6.27,1.57,.32,0,.63-.03,.92-.07,.08-.19,.19-.38,.34-.57,1.04-1.3,2.8-.91,3.65-1.57-.1,.27-.2,.5-.29,.71,.61-.27,1.13-.38,1.65-.07,.97,.58,.61,1.84,.9,3.2,.36,.16,.73,.39,1.09,.73,.73,.7,.97,1.43,1.18,1.99,.69,.28,1.45,.42,2.2,.5,.19,.03,.38,.05,.56,.07,1.54,.16,2.95,.28,3.48,1.35,.79,1.6-1.6,2.82-1.57,6.27,.03,3.38,2.36,4.58,1.57,6.27Z" fill="none" stroke="#000" stroke-miterlimit="10"/><path d="M109.95,88.94c-.08,.17-.19,.3-.32,.41-.29,.03-.62,.21-1.01,.41h-.01c-.56,.12-1.2,.2-1.78,.49h-.03c-1.75,.02-2.39-1.23-3.27-.81-1.01,.49-.36,2.28-1.63,3.26-.28,.21-.55,.32-.81,.37h-.01c-.63,.12-1.19-.05-1.63,.45-.1,.11-.17,.23-.21,.36h0c-.11,.32-.05,.68,.04,1.13v.02c.13,.64,.32,1.46,.17,2.58-.27,1.92-1.23,2.44-.82,3.26,.47,.94,1.8,.44,3.06,1.47-.67-.35-1.16-.67-1.74-.4-.32,.15-.5,.41-.63,.73h0c-.14,.38-.21,.85-.31,1.32h0c-.94,1.04-3.26,.4-4.61,2.08-.65,.81-.74,1.74-.74,2.58-.59,.11-1.24,.16-1.99,.05-2.77-.42-3.47-2.57-4.97-2.13-1.11,.33-1.27,1.7-1.84,2.96-.73,.58-1.3,1.23-1.94,1.39,.15-.34,.2-.65,.03-.98-.3-.6-1.04-.73-1.89-.82h-.01c-.97-.11-2.07-.18-2.83-.88,.11-.5,.04-1.2,.06-1.95,.01-.87,.14-1.82,.8-2.65,1.61-2.01,4.49-.96,5.27-2.63,.36-.77-.04-1.41-.49-2.3,3.08,.49,5.17,3.91,6.67,3.08,1.42-.79-.31-3.93,1.57-6.27,.83-1.03,1.95-1.39,3.02-1.62,1.05-.22,2.05-.33,2.71-.84,.22-.17,.41-.39,.54-.67,.79-1.69-1.54-2.89-1.57-6.27-.03-3.45,2.36-4.67,1.57-6.27-.53-1.07-1.94-1.19-3.48-1.35,.06-.23,.11-.45,.16-.68,.16-.82,.25-1.57,.9-1.88,1.07-.51,1.86,1.03,4,1,.7-.01,1.27-.18,1.75-.38,.12,.61,.31,1.36,.32,2.33,0,.32-.02,.67-.07,1.05-.33,2.35-1.51,3-1,4,.6,1.21,2.38,.47,4,2,1.37,1.31,1,2.71,2,3,.94,.28,1.59-.88,2.71-1.56,.3,.58,.54,1.04,.29,1.56Z" fill="none" stroke="#000" stroke-miterlimit="10"/><path d="M82.92,110.92c-.21,.07-.43,.07-.66,0-.73-.21-.86-.92-1.2-1.8,.85,.09,1.59,.22,1.89,.82,.17,.33,.12,.64-.03,.98Z" fill="none" stroke="#000" stroke-miterlimit="10"/><path d="M109.63,89.35c-.26,.21-.62,.32-1.01,.41,.39-.2,.72-.38,1.01-.41Z" fill="none" stroke="#000" stroke-miterlimit="10"/><path d="M119.95,78.94c.02,2.16,1.5,2.93,1,4-.28,.59-.91,.73-1.62,.88-.42-.18-.81-.24-1.23-.03-.33,.16-.55,.41-.7,.72-.16,.12-.31,.26-.45,.43-.78,.97-.59,2.16-.6,3-.18,.29-.41,.56-.72,.8-.11,.08-.22,.15-.32,.22-1.03-.36-2.42-2.2-4.36-2.02-.5,.05-.92,.22-1.29,.44-1.12,.68-1.77,1.84-2.71,1.56-1-.29-.63-1.69-2-3-1.62-1.53-3.4-.79-4-2-.51-1,.67-1.65,1-4,.05-.38,.07-.73,.07-1.05-.01-.97-.2-1.72-.32-2.33-.12-.66-.15-1.17,.25-1.62,.43-.49,.96-.46,1.55-.5,.45-.03,.94-.11,1.45-.5,.02-.02,.04-.03,.06-.05,.84-.18,1.62-.27,1.94-.95,.34-.72-.22-1.3-.63-2.26,.13-.32,.31-.59,.63-.74,1.07-.51,1.86,1.03,4,1,2.11-.02,3.07-1.55,4-1,.84,.5,.1,1.82,1,3,1.33,1.76,4.31,.61,5,2,.51,1.02-1.02,1.8-1,4Z" fill="none" stroke="#000" stroke-miterlimit="10"/><path d="M74.4,146.6c-.91,1.14-.07,2.67-.76,3.05-.82,.45-2-1.7-3.81-1.53-1.53,.14-2.09,1.81-3.05,1.53-.76-.22-.48-1.29-1.53-2.29-1.23-1.17-2.59-.61-3.05-1.53-.38-.77,.52-1.26,.76-3.05,.29-2.06-.68-3.04,0-3.81,.58-.66,1.39-.07,2.29-.76,1.19-.92,.58-2.59,1.53-3.05,.82-.39,1.42,.78,3.05,.76,1.61-.02,2.35-1.18,3.05-.76,.65,.38,.08,1.39,.76,2.29,1.01,1.34,3.29,.47,3.81,1.53,.39,.78-.78,1.38-.76,3.05,.01,1.65,1.15,2.23,.76,3.05-.45,.97-2.12,.36-3.05,1.53Z" fill="none" stroke="#000" stroke-miterlimit="10"/></g><g><path d="M56.71,645.9l1-75c-1.21-2.57-4.88-9.44-13-14-6.73-3.78-13.09-4.06-16-4,2.37-.55,8.3-1.57,15,1,9.14,3.51,13.11,11.16,14,13v-17c-2.31-3.39-5.84-7.8-11-12-3.98-3.24-7.84-5.47-11-7,3.18,.61,8.55,2.08,14,6,3.81,2.74,6.38,5.75,8,8,.67-8.33,1.33-16.67,2-25,.67,8.33,1.33,16.67,2,25,.84-1.83,3.35-6.7,9-10,4.58-2.67,8.94-2.99,11-3-2.81,1.23-6.34,3.11-10,6-4.86,3.85-8.04,7.98-10,11v17c1.21-1.78,9.1-13.07,21-13,1.68,0,3.72,.25,6,1-2.89,.06-7.71,.54-13,3-7.17,3.34-11.25,8.47-13,11v78h-6Z" fill="none" stroke="#000" stroke-miterlimit="10"/><path d="M57.71,587.9c-21.92-2.01-39.38-17.21-43-36-4.9-25.48,16.69-52.23,44-53,25.41-.71,48.54,21.26,47,47-1.28,21.49-19.43,40.03-43,42" fill="none" stroke="#000" stroke-miterlimit="10"/></g><g><path d="M381.76,645.9c1-23.33,2-46.67,3-70l-16-25,16,20,2-54,3,27,13-13-13,18,1,34,21-26-21,30c.67,19.67,1.33,39.33,2,59h-11Z" fill="none" stroke="#000" stroke-miterlimit="10"/><path d="M383.76,590.9c-25.19-2.35-42.46-18.21-43-34-.32-9.39,5.33-17,9-21-.87-2.19-3.03-8.46-1-16,2.81-10.46,11.49-15.21,13-16-.82-2.74-1.68-7.27,0-12,3.75-10.54,17.21-13.82,25-14,1.26-.03,19.41-.18,26,13,2.55,5.09,2.36,10.15,2,13,1.54,1.02,12.29,8.37,13,21,.26,4.65-.93,8.49-2,11,3.01,3.39,9.88,12.15,9,23-1.29,15.96-18.93,31.08-43.38,32.03" fill="none" stroke="#000" stroke-miterlimit="10"/></g></g></svg>