<?xml version="1.0" encoding="UTF-8"?><svg id="Layer_2" xmlns="http://www.w3.org/2000/svg" width="92.77" height="148.02" viewBox="0 0 92.77 148.02"><g id="Layer_2-2"><g><path d="M43.2,147.52l1-75c-1.21-2.57-4.88-9.44-13-14-6.73-3.78-13.09-4.06-16-4,2.37-.55,8.3-1.57,15,1,9.14,3.51,13.11,11.16,14,13v-17c-2.31-3.39-5.84-7.8-11-12-3.98-3.24-7.84-5.47-11-7,3.18,.61,8.55,2.08,14,6,3.81,2.74,6.38,5.75,8,8,.67-8.33,1.33-16.67,2-25,.67,8.33,1.33,16.67,2,25,.84-1.83,3.35-6.7,9-10,4.58-2.67,8.94-2.99,11-3-2.81,1.23-6.34,3.11-10,6-4.86,3.85-8.04,7.98-10,11v17c1.21-1.78,9.1-13.07,21-13,1.68,0,3.72,.25,6,1-2.89,.06-7.71,.54-13,3-7.17,3.34-11.25,8.47-13,11v78h-6Z" fill="none" stroke="#000" stroke-miterlimit="10"/><path d="M44.2,89.52C22.28,87.51,4.81,72.31,1.2,53.52-3.71,28.03,17.89,1.28,45.2,.52c25.41-.71,48.54,21.26,47,47-1.28,21.49-19.43,40.03-43,42" fill="none" stroke="#000" stroke-miterlimit="10"/></g></g></svg>