<?xml version="1.0" encoding="UTF-8"?><svg id="Layer_2" xmlns="http://www.w3.org/2000/svg" width="95.09" height="169" viewBox="0 0 95.09 169"><g id="Layer_2-2"><g><path d="M41.51,168.5c1-23.33,2-46.67,3-70l-16-25,16,20,2-54,3,27,13-13-13,18,1,34,21-26-21,30c.67,19.67,1.33,39.33,2,59h-11Z" fill="none" stroke="#000" stroke-miterlimit="10"/><path d="M43.51,113.5C18.32,111.15,1.06,95.29,.51,79.5c-.32-9.39,5.33-17,9-21-.87-2.19-3.03-8.46-1-16,2.81-10.46,11.49-15.21,13-16-.82-2.74-1.68-7.27,0-12C25.26,3.97,38.72,.69,46.51,.5c1.26-.03,19.41-.18,26,13,2.55,5.09,2.36,10.15,2,13,1.54,1.02,12.29,8.37,13,21,.26,4.65-.93,8.49-2,11,3.01,3.39,9.88,12.15,9,23-1.29,15.96-18.93,31.08-43.38,32.03" fill="none" stroke="#000" stroke-miterlimit="10"/></g></g></svg>